<svg xmlns:dc="http://purl.org/dc/elements/1.1/" xmlns:cc="http://creativecommons.org/ns#" xmlns:rdf="http://www.w3.org/1999/02/22-rdf-syntax-ns#" xmlns:svg="http://www.w3.org/2000/svg" xmlns="http://www.w3.org/2000/svg" xmlns:sodipodi="http://sodipodi.sourceforge.net/DTD/sodipodi-0.dtd" xmlns:inkscape="http://www.inkscape.org/namespaces/inkscape" version="1.1" x="0px" y="0px" viewBox="0 0 100 125"><g transform="translate(0,-952.36218)"><path style="text-indent:0;text-transform:none;direction:ltr;block-progression:tb;baseline-shift:baseline;color:#000000;enable-background:accumulate;" d="m 78.001321,964.36217 c -9.35259,0 -16.99869,7.6467 -16.99869,17 0,0.3403 0.0426,0.6645 0.0625,1 l -36.84089,0 -3.37474,-11.8438 c -0.3613,-1.2325 -1.59048,-2.1544 -2.87478,-2.1562 l -9.9992201,0 c -4.33687,0.2478 -3.57978,6.1492 0,6 l 7.7494001,0 c 1.23224,4.0142 2.209,8.1901 3.49973,12.1562 2.61774,10.4939 5.25114,21.04783 7.87439,31.56263 0.31793,1.288 1.57939,2.2783 2.90602,2.2812 l 43.99659,0 c 1.32662,0 2.58807,-0.9932 2.90602,-2.2812 l 5.03086,-20.21883 C 89.39772,996.06767 95,989.35397 95,981.36217 c 0,-9.3533 -7.6461,-17 -16.998679,-17 z m 0,6 c 6.11019,0 10.999139,4.8893 10.999139,11 0,6.1107 -4.888949,11 -10.999139,11 -6.1102,0 -10.99915,-4.8893 -10.99915,-11 0,-6.1107 4.88895,-11 10.99915,-11 z m 0,1 c -1.65602,0 -2.99977,1.3431 -2.99977,3 l 0,6.7812 c -1.17713,-1.0595 -2.99177,-1.0397 -4.12468,0.0938 -1.1709,1.1715 -1.17099,3.0784 0,4.25 l 4.99961,5 c 0.5426,0.5429 1.29683,0.875 2.12484,0.875 0.82795,0 1.58222,-0.3321 2.12483,-0.875 l 4.999609,-5 c 1.17098,-1.1716 1.17089,-3.0785 0,-4.25 -1.132909,-1.1337 -2.947549,-1.1535 -4.124679,-0.0938 l 0,-6.7812 c 0,-1.6569 -1.34385,-3 -2.99976,-3 z m -52.15221,17 36.68466,0 c 2.37236,5.2022 7.30316,9.0015 13.15522,9.8125 l -4.03093,16.18753 -39.30945,0 -6.4995,-26.00003 z m 13.15523,34.00003 c -4.93468,0 -8.9993,4.065 -8.9993,9 0,4.935 4.06461,9 8.9993,9 4.93468,0 8.9993,-4.065 8.9993,-9 0,-4.935 -4.06462,-9 -8.9993,-9 z m 25.99798,0 c -4.93467,0 -8.9993,4.065 -8.9993,9 0,4.935 4.06463,9 8.9993,9 4.93469,0 8.99931,-4.065 8.99931,-9 0,-4.935 -4.06462,-9 -8.99931,-9 z m -25.99798,6 c 1.69226,0 2.99977,1.3076 2.99977,3 0,1.6924 -1.30751,3 -2.99977,3 -1.69227,0 -2.99977,-1.3076 -2.99977,-3 0,-1.6924 1.3075,-3 2.99977,-3 z m 25.99798,0 c 1.69227,0 2.99977,1.3076 2.99977,3 0,1.6924 -1.3075,3 -2.99977,3 -1.69226,0 -2.99976,-1.3076 -2.99976,-3 0,-1.6924 1.3075,-3 2.99976,-3 z" fill="#000000" fill-opacity="1" stroke="none" marker="none" visibility="visible" display="inline" overflow="visible"/></g></svg>