<svg xmlns="http://www.w3.org/2000/svg" xmlns:xlink="http://www.w3.org/1999/xlink" version="1.1" x="0px" y="0px" viewBox="0 0 100 125" enable-background="new 0 0 100 100" xml:space="preserve"><path fill-rule="evenodd" clip-rule="evenodd" d="M49.366,16.965h1.268c5.25,0,9.506,4.256,9.506,9.506v13.39h13.389  c5.25,0,9.508,4.256,9.508,9.506v1.268c0,5.25-4.258,9.506-9.508,9.506H60.14v13.39c0,5.25-4.256,9.506-9.506,9.506h-1.268  c-5.25,0-9.506-4.256-9.506-9.506V60.14H26.472c-5.25,0-9.506-4.256-9.506-9.506v-1.268c0-5.25,4.256-9.506,9.506-9.506H39.86  v-13.39C39.86,21.221,44.116,16.965,49.366,16.965z M14.646,85.355c-19.527-19.526-19.527-51.185,0-70.711  c19.525-19.526,51.184-19.526,70.709,0c19.527,19.526,19.527,51.185,0,70.711C65.829,104.882,34.171,104.882,14.646,85.355z"/></svg>