<svg xmlns:dc="http://purl.org/dc/elements/1.1/" xmlns:cc="http://creativecommons.org/ns#" xmlns:rdf="http://www.w3.org/1999/02/22-rdf-syntax-ns#" xmlns:svg="http://www.w3.org/2000/svg" xmlns="http://www.w3.org/2000/svg" xmlns:sodipodi="http://sodipodi.sourceforge.net/DTD/sodipodi-0.dtd" xmlns:inkscape="http://www.inkscape.org/namespaces/inkscape" version="1.1" x="0px" y="0px" viewBox="0 0 16 20"><g transform="translate(0,-1036.3622)"><g transform="matrix(0.93960084,0,0,0.93960084,-18.37881,-79.349854)"><path style="text-indent:0;text-transform:none;direction:ltr;block-progression:tb;baseline-shift:baseline;color:#000000;enable-background:accumulate;" d="M 8 0 C 3.5946853 0 0 3.5946816 0 8 C 0 12.405319 3.5946853 15.96875 8 15.96875 C 12.405315 15.96875 15.96875 12.405319 15.96875 8 C 15.96875 3.5946816 12.405315 0 8 0 z M 8 0.9375 C 11.897521 0.9375 15.03125 4.1024419 15.03125 8 C 15.03125 11.897558 11.897521 15.03125 8 15.03125 C 4.1024794 15.03125 0.9375 11.897558 0.9375 8 C 0.9375 4.1024419 4.1024794 0.9375 8 0.9375 z M 8 4.1875 C 6.7082556 4.1875 5.625 5.2394868 5.625 6.53125 A 0.48437499 0.48437499 0 0 0 6.59375 6.53125 C 6.59375 5.7472471 7.2160365 5.125 8 5.125 C 8.7839644 5.125 9.40625 5.7472471 9.40625 6.53125 C 9.40625 7.0875877 9.0871549 7.5503901 8.625 7.78125 C 8.0654245 8.0338147 7.7516854 8.5402146 7.625 9.03125 C 7.4983146 9.5223794 7.53125 10.025446 7.53125 10.46875 A 0.46984739 0.46984739 0 1 0 8.46875 10.46875 C 8.46875 10.025352 8.4483302 9.5715314 8.53125 9.25 C 8.6141698 8.9285626 8.7523934 8.7509065 9.03125 8.625 C 9.8031236 8.2395757 10.34375 7.4480185 10.34375 6.53125 C 10.34375 5.2394868 9.2917454 4.1875 8 4.1875 z M 8 11.5 C 7.7405364 11.5 7.53125 11.709287 7.53125 11.96875 C 7.53125 12.228213 7.7405364 12.4375 8 12.4375 C 8.2594636 12.4375 8.46875 12.228213 8.46875 11.96875 C 8.46875 11.709287 8.2594636 11.5 8 11.5 z " transform="matrix(1.0642817,0,0,1.0642817,19.560232,1187.4319)" fill="#000000" fill-opacity="1" stroke="none" marker="none" visibility="visible" display="inline" overflow="visible"/></g></g></svg>