<?xml version="1.0" encoding="utf-8"?>
<!-- Generator: Adobe Illustrator 19.0.0, SVG Export Plug-In . SVG Version: 6.00 Build 0)  -->
<svg version="1.1" id="Слой_1" xmlns="http://www.w3.org/2000/svg" xmlns:xlink="http://www.w3.org/1999/xlink" x="0px" y="0px"
	 viewBox="-285 408.9 24 24" style="enable-background:new -285 408.9 24 24;" xml:space="preserve">
<g>
	<path d="M-263,426c0,5.3-4.5,4.9-10,4.9s-10,0.4-10-4.9c0-5.6,6.3-8.1,10-8.1S-263,420.4-263,426z"/>
</g>
<g>
	<path d="M-264.4,420c0,0-4-3.1-8.6-3.1c-4.6,0-8.5,3.1-8.6,3.1l-1.2-1.6c0.2-0.1,4.5-3.5,9.8-3.5s9.6,3.4,9.8,3.5L-264.4,420z"/>
</g>
<g>
	<circle cx="-269.5" cy="412.4" r="1.5"/>
</g>
<g>
	<circle cx="-276.5" cy="412.4" r="1.5"/>
</g>
<g>
	<path d="M-273,416.9c-0.6,0-1-0.4-1-1s0.4-1,1-1c1.7,0,2.3-2.5,2.3-2.5c0.1-0.5,0.7-0.9,1.2-0.7c0.5,0.1,0.9,0.7,0.7,1.2
		C-268.8,413-269.8,416.9-273,416.9z"/>
</g>
<g>
	<path d="M-273,416.9c-3.2,0-4.2-3.9-4.3-4.1c-0.1-0.5,0.2-1.1,0.7-1.2c0.5-0.1,1.1,0.2,1.2,0.7c0,0,0.7,2.5,2.3,2.5
		c0.6,0,1,0.4,1,1S-272.4,416.9-273,416.9z"/>
</g>
</svg>
