<svg xmlns:dc="http://purl.org/dc/elements/1.1/" xmlns:cc="http://creativecommons.org/ns#" xmlns:rdf="http://www.w3.org/1999/02/22-rdf-syntax-ns#" xmlns:svg="http://www.w3.org/2000/svg" xmlns="http://www.w3.org/2000/svg" xmlns:sodipodi="http://sodipodi.sourceforge.net/DTD/sodipodi-0.dtd" xmlns:inkscape="http://www.inkscape.org/namespaces/inkscape" viewBox="0 0 1279.1425 1598.88275" version="1.1" x="0px" y="0px"><g transform="translate(784.80128,-2645.8836)"><path style="" d="m -179.05281,3924.1324 c -124.23606,-6.4443 -247.29602,-50.748 -346.833,-124.8656 -26.74954,-19.9183 -46.13074,-36.7479 -71.26953,-61.8867 -52.6718,-52.6718 -92.0243,-107.9127 -123.7733,-173.746 -85.1636,-176.5912 -85.1636,-379.7674 0,-556.3586 31.749,-65.8333 71.1015,-121.0742 123.7733,-173.746 52.67177,-52.6717 107.91269,-92.0243 173.746,-123.7733 176.59121,-85.1635 379.767347,-85.1635 556.35855,0 65.83332,31.749 121.07424,71.1016 173.74601,123.7733 52.67176,52.6718 92.02434,107.9127 123.77336,173.746 85.16348,176.5912 85.16348,379.7674 0,556.3586 -31.74902,65.8333 -71.1016,121.0742 -123.77336,173.746 -42.40418,42.4042 -83.52685,73.9592 -134.48926,103.1988 -105.840133,60.7258 -228.564343,89.918 -351.25877,83.5535 z m 94.447747,-162.3059 c 35.06382,-4.7617 64.21215,-11.6389 96.28096,-22.7165 162.615543,-56.1724 282.505693,-194.8978 314.820703,-364.2802 6.28313,-32.9336 7.61027,-48.5196 7.61027,-89.375 0,-40.8554 -1.32714,-56.4413 -7.61027,-89.375 -37.02926,-194.0926 -188.25906,-345.3224 -382.351663,-382.3517 -32.93365,-6.2831 -48.519607,-7.6102 -89.374997,-7.6102 -40.85539,0 -56.44135,1.3271 -89.375,7.6102 -194.0926,37.0293 -345.32238,188.2591 -382.35168,382.3517 -6.2831,32.9337 -7.6102,48.5196 -7.6102,89.375 0,40.8554 1.3271,56.4414 7.6102,89.375 39.3096,206.0454 208.16603,363.4901 415.47668,387.3979 25.84691,2.9808 25.84668,2.9808 63.125,2.5498 26.38268,-0.3051 39.616427,-1.0316 53.749997,-2.951 z M -157.4815,3621.0754 c -32.52061,-5.8929 -58.22595,-32.619 -63.72251,-66.2529 -1.75261,-10.7244 -1.75261,-13.011 0,-23.7354 5.72195,-35.0131 31.59315,-60.8843 66.60625,-66.6062 10.72438,-1.7527 13.01103,-1.7527 23.7354,0 35.013097,5.7219 60.884297,31.5931 66.606247,66.6062 1.75261,10.7244 1.75261,13.011 0,23.7354 -5.54584,33.9354 -31.21267,60.4012 -64.296637,66.298 -11.879,2.1172 -17.04021,2.1092 -28.92875,-0.045 z m -65.24856,-438.1206 0,-200 80,0 79.999997,0 0,200 0,200 -79.999997,0 -80,0 0,-200 z" fill="#000000"/></g></svg>