<?xml version="1.0" standalone="no"?>
<!DOCTYPE svg PUBLIC "-//W3C//DTD SVG 1.1//EN" "http://www.w3.org/Graphics/SVG/1.1/DTD/svg11.dtd" >
<svg>
<metadata>
Created by FontForge 20090622 at Sun Aug  7 10:29:02 2016
 By deploy user
Copyright (c) 2008 by Vasiliy Shishkin. All rights reserved.
</metadata>
<defs>
<font id="Fregat-Bold" horiz-adv-x="530" >
  <font-face 
    font-family="Fregat"
    font-weight="700"
    font-stretch="normal"
    units-per-em="1000"
    panose-1="2 0 8 6 4 0 0 2 0 4"
    ascent="800"
    descent="-200"
    x-height="518"
    cap-height="700"
    bbox="-35 -209 931 897.108"
    underline-thickness="50"
    underline-position="-50"
    unicode-range="U+0020-U+FB00"
  />
<missing-glyph horiz-adv-x="330" 
 />
    <glyph glyph-name="ff" unicode="ff" horiz-adv-x="617" 
d="M96 39v371h-33q-48 0 -48 54t48 54h33v15q0 89 40.5 132.5t142.5 43.5q73 0 73 -63q0 -29 -10 -41t-34 -11q-6 1 -14 1q-29 -1 -46.5 -13t-17.5 -47v-17h135v15q0 88 40.5 132t142.5 44q42 0 60.5 -11.5t18.5 -51.5q0 -29 -9.5 -41t-33.5 -11q-6 1 -20 1
q-30 -1 -47.5 -13t-17.5 -47v-17h44q48 0 48 -54t-48 -54h-44v-371q0 -48 -67 -48t-67 48v371h-135v-371q0 -48 -67 -48t-67 48z" />
    <glyph glyph-name="tt" unicode="tt" horiz-adv-x="659" 
d="M374 607q0 48 67 48q68 0 68 -48v-89h49q48 0 48 -54t-48 -54h-49v-232q0 -37 17 -53t60 -10q53 7 57 -43q3 -41 -24 -61t-72 -20q-93 0 -133 46.5t-40 132.5v240h-145v-232q0 -74 81 -64q28 3 40 -9.5t13 -39.5q3 -74 -95 -74q-94 0 -133.5 46.5t-39.5 132.5v240h-32
q-48 0 -48 54t48 54h32v89q0 48 67 48t67 -48v-89h145v89z" />
    <glyph glyph-name="h_h" unicode="&#x2d;&#x3e;" horiz-adv-x="817" 
d="M93 335h503q-15 7 -38 28l-71 57q-39 37 -8 63q14 13 34.5 13t32.5 -13l212 -173q9 -8 9 -19t-9 -18l-212 -174q-12 -14 -32.5 -14t-34.5 14q-16 15 -12.5 31.5t20.5 29.5l71 59q10 10 38 30h-503q-43 0 -43 43q0 20 11.5 31.5t31.5 11.5z" />
    <glyph glyph-name="g_g" unicode="&#x3c;&#x2d;" horiz-adv-x="819" 
d="M726 335q20 0 31.5 -11.5t11.5 -31.5q0 -43 -43 -43h-507q9 -6 23.5 -17t18.5 -13l68 -59q19 -13 23 -29.5t-11 -31.5q-15 -14 -35 -14t-36 14l-211 174q-8 7 -8 18.5t9 18.5l210 173q16 13 36 13t35 -13q30 -27 -12 -63l-68 -57q-3 -2 -18 -13t-24 -15h507z" />
    <glyph glyph-name=".notdef" horiz-adv-x="330" 
 />
    <glyph glyph-name=".null" horiz-adv-x="0" 
 />
    <glyph glyph-name="nonmarkingreturn" horiz-adv-x="333" 
 />
    <glyph glyph-name="space" unicode=" " horiz-adv-x="330" 
 />
    <glyph glyph-name="exclam" unicode="!" horiz-adv-x="263" 
d="M132 131q42 0 57.5 -17.5t15.5 -52.5q0 -37 -15.5 -55.5t-57.5 -18.5q-43 0 -58 18.5t-15 55.5q0 35 15.5 52.5t57.5 17.5zM132 703q79 0 75 -64l-30 -419q-3 -33 -45 -33q-43 0 -46 33l-30 419q-4 64 76 64z" />
    <glyph glyph-name="quotedbl" unicode="&#x22;" horiz-adv-x="429" 
d="M283 415q-50 3 -43 51l28 182q9 62 82 57q44 -3 58 -30.5t-2 -59.5l-65 -162q-16 -39 -58 -38zM99 415q-50 3 -43 51l28 182q9 62 82 57q44 -3 58 -30.5t-2 -59.5l-65 -162q-15 -39 -58 -38z" />
    <glyph glyph-name="numbersign" unicode="#" horiz-adv-x="607" 
d="M312 654l-27 -149h90l27 149q8 46 66 46q25 0 39.5 -10.5t10.5 -35.5l-26 -149h56q42 0 32 -53t-51 -53h-56l-17 -94h56q43 0 33 -53q-8 -53 -51 -53h-56l-29 -162q-7 -46 -66 -46q-25 0 -39.5 10.5t-10.5 35.5l28 162h-89l-29 -162q-7 -46 -66 -46q-25 0 -39.5 10.5
t-10.5 35.5l28 162h-56q-42 0 -32 53t51 53h56l17 94h-57q-42 0 -32 53t51 53h56l27 149q8 46 66 46q26 0 40.5 -10.5t9.5 -35.5zM250 305h90l17 94h-90z" />
    <glyph glyph-name="dollar" unicode="$" horiz-adv-x="564" 
d="M129 193q14 -70 88 -92v210q-85 26 -135.5 71.5t-50.5 128.5q0 80 53 131.5t133 63.5v20q0 46 56 46q57 0 57 -46v-22q153 -28 178 -170q8 -48 -44 -51q-57 -4 -67 28q-22 64 -67 84v-185q43 -13 75 -27.5t62 -38t46 -59.5t16 -82q0 -91 -52 -146t-147 -67v-31
q0 -47 -57 -47q-56 0 -56 47v33q-79 12 -134.5 57t-66.5 124q-4 21 8 38.5t43 21.5q51 6 62 -40zM330 100q71 21 71 94q0 59 -71 85v-179zM217 598q-28 -9 -46 -31.5t-18 -54.5q1 -45 64 -71v157z" />
    <glyph glyph-name="percent" unicode="%" horiz-adv-x="655" 
d="M25 545q0 70 34 113t104 43t104 -43.5t34 -112.5t-34 -112.5t-104 -43.5t-104 43t-34 113zM204 545q0 14 -1 22.5t-4 22t-12.5 20t-23.5 6.5t-23.5 -6.5t-12.5 -20t-4 -22t-1 -22.5q0 -71 41 -71t41 71zM354 146q0 69 34 112t104 43t104 -43t34 -112t-34 -112.5
t-104 -43.5t-104 43t-34 113zM533 146q0 71 -41 71q-14 0 -23.5 -6.5t-12.5 -20t-4 -22t-1 -22.5q0 -71 41 -71t41 71zM554 644l-351 -619q-21 -43 -78 -32q-21 4 -27.5 18t3.5 33l351 619q17 38 66 37q25 -1 36 -17t0 -39z" />
    <glyph glyph-name="ampersand" unicode="&#x26;" horiz-adv-x="640" 
d="M501 8l-49 51q-74 -68 -178 -68q-102 -1 -170 58t-69 160q0 120 147 212q-15 31 -24 55q-31 87 8.5 155.5t136.5 68.5q74 0 117 -37t38 -110q-5 -95 -123 -172q37 -57 104 -137q16 47 17 94q1 23 16.5 35t39.5 9q60 -8 57 -65q-6 -85 -47 -166l90 -95q18 -23 9 -39
t-37 -24q-52 -17 -83 15zM378 142q-82 95 -139 182q-71 -49 -71 -115q0 -48 30.5 -79t80.5 -31q57 0 99 43zM281 480q61 45 56 87q-2 15 -11.5 24.5t-23.5 10.5q-23 0 -34 -14t-10 -34.5t7 -40.5t16 -33z" />
    <glyph glyph-name="quotesingle" unicode="'" horiz-adv-x="245" 
d="M98 415q-49 3 -42 51l27 182q10 62 82 57q44 -3 58.5 -30.5t-1.5 -59.5l-65 -162q-16 -39 -59 -38z" />
    <glyph glyph-name="parenleft" unicode="(" horiz-adv-x="276" 
d="M35 258q0 224 144 423q23 28 67 12q41 -16 14 -60q-101 -167 -101 -375t101 -375q27 -44 -14 -60q-44 -16 -67 12q-144 181 -144 423z" />
    <glyph glyph-name="parenright" unicode=")" horiz-adv-x="276" 
d="M96 681q145 -181 145 -423q0 -244 -145 -423q-23 -29 -67 -12q-40 15 -13 60q100 165 100 375t-100 375q-27 45 13 60q44 17 67 -12z" />
    <glyph glyph-name="asterisk" unicode="*" horiz-adv-x="489" 
d="M371 311q-21 -15 -45 -12t-38 27l-45 81l-44 -82q-13 -24 -37 -27.5t-46 13.5q-23 17 -26 40t16 43l63 67l-91 18q-28 5 -38 29t2 51q11 24 29.5 32t41.5 -2l85 -40l-12 93q-3 26 13 43t44 17q29 0 45.5 -17t13.5 -43l-12 -93l84 39q27 11 47 1.5t29 -35.5q9 -27 -2 -49
t-39 -27l-90 -17l62 -67q19 -21 16 -44t-26 -39z" />
    <glyph glyph-name="plus" unicode="+" horiz-adv-x="567" 
d="M339 556v-154h154q39 0 39 -56q0 -55 -39 -55h-154v-155q0 -39 -56 -39q-55 0 -55 39v155h-155q-38 0 -38 55q0 56 38 56h155v154q0 39 55 39q56 0 56 -39z" />
    <glyph glyph-name="comma" unicode="," horiz-adv-x="275" 
d="M89 -149q-50 3 -43 51l28 182q9 62 82 57q44 -3 58 -30.5t-2 -59.5l-65 -162q-17 -41 -58 -38z" />
    <glyph glyph-name="hyphen" unicode="-" horiz-adv-x="350" 
d="M276 206h-203q-38 0 -38 55q0 56 38 56h203q39 0 39 -56q0 -55 -39 -55z" />
    <glyph glyph-name="period" unicode="." horiz-adv-x="281" 
d="M140 141q44 0 60 -18.5t16 -56.5q0 -39 -16 -59t-60 -20t-59.5 20t-15.5 59q0 37 16.5 56t58.5 19z" />
    <glyph glyph-name="slash" unicode="/" horiz-adv-x="497" 
d="M486 642l-373 -787q-20 -44 -78 -33q-44 8 -24 52l372 787q19 38 66 37q26 -2 37 -17.5t0 -38.5z" />
    <glyph glyph-name="zero" unicode="0" horiz-adv-x="646" 
d="M40 348q0 67 16.5 128.5t49.5 113.5t89 83t128 31t128 -31t89 -83t49.5 -113.5t16.5 -128.5t-16.5 -128.5t-49.5 -113.5t-89 -83t-128 -31t-128 31t-89 83t-49.5 113.5t-16.5 128.5zM469 348q0 39 -6 76.5t-21 77t-45.5 63.5t-73.5 24q-35 0 -62 -16.5t-42.5 -42t-25 -59
t-13 -63.5t-3.5 -60t3.5 -60t13 -63.5t25 -59t42.5 -42t62 -16.5q43 0 73.5 24t45.5 63.5t21 77t6 76.5z" />
    <glyph glyph-name="one" unicode="1" horiz-adv-x="373" 
d="M288 658v-617q0 -46 -62 -46t-62 46v523q-11 -11 -31 -19l-54 -21q-16 -6 -31 1.5t-22 24.5q-18 46 19 65l134 77q19 12 47 12q62 0 62 -46z" />
    <glyph glyph-name="two" unicode="2" 
d="M87 0q-39 0 -53 16t-14 60q0 40 33 80q59 68 194 172q116 90 116 159q0 50 -29 77.5t-82 27.5q-82 0 -102 -84q-6 -25 -26 -35t-46 -7q-26 2 -38 14t-12 38q6 90 70 140.5t154 50.5q107 0 176 -52.5t69 -154.5q0 -72 -36.5 -125t-104.5 -109l-54.5 -42.5l-63.5 -50
t-49 -44.5q-3 -3 -2.5 -7t6.5 -4h265q42 0 42 -60t-42 -60h-371z" />
    <glyph glyph-name="three" unicode="3" 
d="M427 586l-140 -138q-3 -3 -1.5 -7t6.5 -5q93 -3 150.5 -60.5t56.5 -145.5q0 -108 -71 -174.5t-180 -66.5q-170 2 -226 127q-12 26 -3 48.5t35 33.5q23 10 45.5 4.5t32.5 -27.5q19 -38 47 -54.5t72 -16.5q51 0 81.5 32.5t32.5 83.5q1 40 -15.5 66.5t-43.5 36.5t-61.5 13.5
t-67.5 -2.5q-18 -2 -33.5 8.5t-21.5 28.5q-15 35 16 70l95 102q11 14 39 38h-202q-43 0 -43 59q0 60 43 60h344q42 0 40 -60q-1 -24 -27 -54z" />
    <glyph glyph-name="four" unicode="4" horiz-adv-x="564" 
d="M495 144h-41v-107q0 -46 -66 -46t-66 46v107h-260q-48 0 -51 56q-1 27 16 54l254 403q19 29 39.5 40.5t52.5 11.5q81 0 81 -52v-400h41q39 0 39 -57q0 -56 -39 -56zM322 527q-14 -35 -27 -56l-97 -154q-24 -40 -45 -60h169v270z" />
    <glyph glyph-name="five" unicode="5" horiz-adv-x="548" 
d="M149 700h270q42 0 42 -59q0 -61 -42 -61h-207q-10 0 -13 -4t-6 -16l-12 -85q-3 -18 4.5 -23t23.5 -2q133 25 221 -31t87 -190q-1 -108 -69.5 -174t-177.5 -66q-78 0 -138.5 32t-89.5 98q-23 50 29 74q55 25 84 -19q23 -37 49 -54.5t68 -17.5q51 0 81 35t30 86
q0 44 -21 75t-54.5 44t-74.5 12.5t-80 -14.5q-44 -16 -80 3.5t-29 68.5l26 198q7 53 22 71.5t57 18.5z" />
    <glyph glyph-name="six" unicode="6" horiz-adv-x="558" 
d="M284 -10q-65 0 -114 25.5t-76.5 70t-40.5 99t-13 119.5q0 147 85 262.5t223 148.5q58 13 86 -33q14 -24 5.5 -42t-35.5 -26q-75 -20 -135 -64t-84 -112q48 36 120 36q100 0 161.5 -68.5t61.5 -170.5q0 -104 -69.5 -174.5t-174.5 -70.5zM285 358q-53 0 -81 -38t-28 -91
q0 -51 28.5 -91.5t78.5 -40.5q54 0 83 40t29 95q0 126 -110 126z" />
    <glyph glyph-name="seven" unicode="7" horiz-adv-x="472" 
d="M119 38l188 524q6 18 -12 18h-233q-42 0 -42 60t42 60h348q42 0 42 -60q0 -16 -8 -40l-193 -562q-16 -46 -82 -46t-50 46z" />
    <glyph glyph-name="eight" unicode="8" horiz-adv-x="583" 
d="M135 380q-64 54 -64 131q0 93 64 147t157 54t157 -54t64 -147q0 -75 -64 -131q47 -27 70.5 -74.5t23.5 -103.5q0 -103 -71.5 -160t-179.5 -57q-109 0 -180 57t-72 160q5 128 95 178zM292 597q-41 0 -67 -22.5t-27 -63.5q2 -35 27.5 -57.5t66.5 -22.5t67 23t26 57
q0 41 -26 63.5t-67 22.5zM292 326q-52 0 -83.5 -34t-31.5 -84q0 -49 32 -81t83 -32t83 32t32 81q0 50 -31.5 84t-83.5 34z" />
    <glyph glyph-name="nine" unicode="9" horiz-adv-x="551" 
d="M270 712q66 0 114 -24.5t75 -68.5t39.5 -98t12.5 -119q0 -153 -84.5 -267t-224.5 -148q-25 -9 -47 -2.5t-34 35.5q-23 57 25 72q82 25 135 64.5t79 109.5q-40 -30 -112 -30q-100 1 -159 66t-59 165q0 105 65.5 175t174.5 70zM267 343q49 0 80 38t31 91q0 56 -27.5 96
t-78.5 40q-55 0 -84 -41.5t-29 -97.5q1 -58 27.5 -92t80.5 -34z" />
    <glyph glyph-name="colon" unicode=":" horiz-adv-x="281" 
d="M141 141q43 0 59 -18.5t16 -56.5q0 -39 -16 -59t-59 -20q-45 0 -60.5 20t-15.5 59q0 37 16.5 56t59.5 19zM141 521q43 0 59 -19t16 -57q0 -39 -16 -59t-59 -20q-45 0 -60.5 20t-15.5 59q0 38 16.5 57t59.5 19z" />
    <glyph glyph-name="semicolon" unicode=";" horiz-adv-x="285" 
d="M139 521q43 0 59 -19t16 -57q0 -39 -16 -59t-59 -20q-45 0 -60.5 20t-15.5 59q0 38 16.5 57t59.5 19zM88 -149q-49 3 -42 51l28 182q9 62 82 57q44 -3 58 -30.5t-2 -59.5l-65 -162q-17 -41 -59 -38z" />
    <glyph glyph-name="less" unicode="&#x3c;" horiz-adv-x="505" 
d="M436 124q18 -10 26 -22.5t7 -37.5q-1 -69 -64 -39l-344 165q-51 25 -51 72t51 72l344 165q63 30 64 -39q1 -26 -6 -38.5t-27 -22.5l-266 -137z" />
    <glyph glyph-name="equal" unicode="=" horiz-adv-x="567" 
d="M494 371h-421q-38 0 -38 55q0 56 38 56h421q38 0 38 -56q0 -55 -38 -55zM494 197h-421q-38 0 -38 55q0 56 38 56h421q38 0 38 -56q0 -55 -38 -55z" />
    <glyph glyph-name="greater" unicode="&#x3e;" horiz-adv-x="505" 
d="M69 124l267 138l-267 137q-20 10 -27 22.5t-6 38.5q3 69 64 39l344 -165q51 -24 51 -72t-51 -72l-344 -165q-61 -30 -64 39q-1 25 7 37.5t26 22.5z" />
    <glyph glyph-name="question" unicode="?" horiz-adv-x="485" 
d="M24 601q31 48 85 73.5t117 26.5q93 2 159 -48q80 -61 74 -161q-3 -51 -29 -88t-76 -80q-55 -45 -84 -105q-16 -32 -57 -27q-43 5 -39 43q3 32 23 66.5t31.5 47.5t47.5 51q48 50 48 97q1 44 -28.5 69.5t-74.5 25.5q-66 0 -112 -55q-16 -19 -37 -18.5t-39 18.5
q-14 13 -16.5 30.5t7.5 33.5zM225 131q42 0 57.5 -17.5t15.5 -52.5q0 -37 -15.5 -55.5t-57.5 -18.5q-43 0 -58 18.5t-15 55.5q0 35 16 52.5t57 17.5z" />
    <glyph glyph-name="at" unicode="@" horiz-adv-x="750" 
d="M543 436l-15 -140q-3 -24 10.5 -32t37.5 13q34 32 36 100q2 97 -62.5 162.5t-164.5 65.5q-102 -1 -172.5 -79t-70.5 -183q0 -107 74.5 -181t184.5 -74q89 0 177 40q20 8 36.5 0t24.5 -29q19 -51 -24 -71q-103 -46 -213 -46q-151 0 -259 103.5t-108 258.5
q0 146 101.5 255.5t250.5 109.5q135 0 232.5 -94t94.5 -233q-1 -54 -21 -105.5t-58 -82.5q-47 -39 -110 -36q-52 3 -71 48q-41 -45 -101 -47q-64 -1 -105 42t-43 110q-2 88 49 153t145 65h79q42 0 56 -23t9 -70zM427 362l6 57q2 11 -9 11h-24q-33 0 -54.5 -22t-27.5 -56
q-7 -32 1.5 -60.5t39.5 -27.5q58 0 68 98z" />
    <glyph glyph-name="A" unicode="A" horiz-adv-x="604" 
d="M373 277l-48 146q-16 49 -23 96q-7 -47 -23 -96l-48 -146h142zM192 160l-39 -120q-10 -29 -28 -38t-47 -9q-20 0 -34 3t-23.5 14t-2.5 30l207 620q17 50 77 50t77 -50l207 -620q9 -27 -9.5 -37t-50.5 -10q-29 0 -47 9t-28 38l-39 120h-220z" />
    <glyph glyph-name="B" unicode="B" horiz-adv-x="600" 
d="M198 302v-165q0 -17 17 -17h130q81 0 81 91t-93 91h-135zM468 373q97 -47 97 -162q0 -95 -57.5 -153t-148.5 -58h-196q-45 0 -71.5 18.5t-26.5 69.5v524q0 51 26.5 69.5t71.5 18.5h170q94 0 150 -49t56 -142q0 -44 -19.5 -80t-51.5 -56zM319 422q40 0 60.5 21t20.5 58
q0 79 -81 79h-104q-17 0 -17 -17v-141h121z" />
    <glyph glyph-name="C" unicode="C" horiz-adv-x="596" 
d="M35 350q0 361 285 361q115 0 176 -61t71 -162q2 -22 -17 -35t-47 -13q-61 -2 -71 43q-12 58 -37.5 84.5t-80.5 26.5q-45 0 -75 -21.5t-43.5 -60.5t-18.5 -76.5t-5 -85.5q0 -47 5 -84.5t19 -76.5t44 -60.5t74 -21.5q54 0 79.5 29t40.5 83q12 42 71 43q37 0 53.5 -14
t10.5 -45q-17 -92 -79.5 -153t-175.5 -61q-279 0 -279 361z" />
    <glyph glyph-name="D" unicode="D" horiz-adv-x="613" 
d="M214 580q-17 0 -17 -17v-425q0 -17 17 -17h87q40 0 69 21.5t44 57t21.5 73t6.5 77.5q0 55 -11.5 104t-45 87.5t-84.5 38.5h-87zM301 0h-138q-45 0 -71.5 18.5t-26.5 70.5v523q0 51 26.5 69.5t71.5 18.5h138q71 0 126 -28t87 -77.5t48 -111t16 -133.5q0 -152 -68.5 -251
t-208.5 -99z" />
    <glyph glyph-name="E" unicode="E" horiz-adv-x="515" 
d="M215 580q-17 0 -17 -17v-141h203q42 0 42 -60t-42 -60h-203v-165q0 -17 17 -17h223q42 0 42 -60t-42 -60h-275q-45 0 -71.5 18.5t-26.5 69.5v524q0 51 26.5 69.5t71.5 18.5h275q42 0 42 -60t-42 -60h-223z" />
    <glyph glyph-name="F" unicode="F" horiz-adv-x="500" 
d="M215 580q-17 0 -17 -17v-145h187q42 0 42 -60t-42 -60h-187v-260q0 -47 -66 -47q-67 0 -67 47v574q0 51 26.5 69.5t71.5 18.5h270q42 0 42 -60t-42 -60h-218z" />
    <glyph glyph-name="G" unicode="G" horiz-adv-x="622" 
d="M172 351q0 -244 142 -244q126 0 132 136q1 19 -5 26t-23 7h-77q-40 0 -40 57q0 56 40 56h142q52 0 71.5 -21t21.5 -65q3 -67 -10 -122t-42.5 -98.5t-81.5 -68t-123 -24.5q-75 0 -130.5 28t-88.5 78t-49 114t-16 141q0 345 279 360q105 0 169 -47t81 -136q11 -60 -58 -60
q-41 0 -58 8.5t-22 28.5q-12 45 -38 67t-74 22q-142 0 -142 -243z" />
    <glyph glyph-name="H" unicode="H" horiz-adv-x="620" 
d="M555 657v-619q0 -47 -67 -47q-66 0 -66 47v260h-225v-260q0 -47 -66 -47t-66 47v619q0 47 66 47t66 -47v-239h225v239q0 47 66 47q67 0 67 -47z" />
    <glyph glyph-name="I" unicode="I" horiz-adv-x="263" 
d="M198 658v-620q0 -47 -67 -47q-66 0 -66 47v620q0 46 66 46q67 0 67 -46z" />
    <glyph glyph-name="J" unicode="J" horiz-adv-x="424" 
d="M359 658v-478q0 -52 -19.5 -91.5t-52 -61.5t-74 -32t-85.5 -7t-86 17q-46 16 -34 78q5 23 21.5 35.5t37.5 5.5q42 -15 82 -13q77 1 77 92v455q0 46 66 46q67 0 67 -46z" />
    <glyph glyph-name="K" unicode="K" horiz-adv-x="579" 
d="M352 430l218 -379q14 -29 0.5 -42.5t-44.5 -14.5q-74 -3 -104 48l-163 284l-61 -68v-221q0 -46 -66 -46q-67 0 -67 46v621q0 46 67 46q66 0 66 -46v-217l185 210q29 33 51.5 45.5t60.5 6.5q32 -6 43.5 -26.5t-7.5 -43.5z" />
    <glyph glyph-name="L" unicode="L" horiz-adv-x="469" 
d="M214 121h198q42 0 42 -61q0 -60 -42 -60h-249q-45 0 -71.5 18.5t-26.5 70.5v574q0 46 66 46q67 0 67 -46v-525q0 -17 16 -17z" />
    <glyph glyph-name="M" unicode="M" horiz-adv-x="703" 
d="M576 705q62 0 62 -48v-619q0 -47 -64 -47q-65 0 -65 47v405q-6 -18 -37 -86l-77 -152q-12 -23 -43 -23q-32 0 -44 23l-76 152q-27 54 -38 86v-405q0 -47 -65 -47q-64 0 -64 47v619q0 48 63 48q38 0 56 -27q8 -11 50 -91l80 -154l38 -74q151 294 167 319q18 27 57 27z" />
    <glyph glyph-name="N" unicode="N" horiz-adv-x="644" 
d="M205 671l197 -334q29 -47 47 -90v411q0 46 65 46t65 -46v-620q0 -47 -70 -47q-51 0 -71 33l-197 334q-27 46 -46 94v-414q0 -47 -65 -47t-65 47v620q0 46 69 46q53 0 71 -33z" />
    <glyph glyph-name="O" unicode="O" horiz-adv-x="638" 
d="M35 350q0 361 284 361t284 -361t-284 -361t-284 361zM467 350q0 244 -148 244q-47 0 -78 -21.5t-45.5 -60.5t-19.5 -76.5t-5 -85.5q0 -243 148 -243t148 243z" />
    <glyph glyph-name="P" unicode="P" horiz-adv-x="576" 
d="M198 264v-226q0 -47 -67 -47q-66 0 -66 47v574q0 51 26.5 69.5t71.5 18.5h177q91 0 151 -61t60 -156q0 -96 -59.5 -157.5t-151.5 -61.5h-142zM326 385q40 0 63 28t23 70q0 43 -22.5 70t-63.5 27h-111q-17 0 -17 -17v-178h128z" />
    <glyph glyph-name="Q" unicode="Q" horiz-adv-x="638" 
d="M332 170q48 8 73 -24l4 -6q58 56 58 211q0 48 -5 85t-19.5 76t-45.5 60.5t-78 21.5q-148 0 -148 -243q0 -239 142 -244l-9 14q-25 40 28 49zM384 -5q-25 -5 -65 -5q-152 0 -218 94.5t-66 266.5q0 360 284 360t284 -360q0 -231 -112 -313l70 -89q19 -27 6.5 -42t-50.5 -21
q-60 -9 -89 37z" />
    <glyph glyph-name="R" unicode="R" horiz-adv-x="610" 
d="M366 194q-19 42 -44 65t-65 23h-60v-244q0 -47 -66 -47t-66 47v574q0 51 26.5 69.5t71.5 18.5h176q92 0 152 -57.5t60 -152.5q0 -67 -34.5 -114.5t-87.5 -67.5q46 -33 78 -104l19 -45.5t25.5 -58t24.5 -43.5q20 -30 -2 -48t-56 -18q-54 0 -73 26q-14 18 -26.5 46
t-28.5 70t-24 61zM325 396q40 0 63.5 26.5t23.5 67.5q0 42 -22.5 66t-64.5 24h-111q-17 0 -17 -17v-167h128z" />
    <glyph glyph-name="S" unicode="S" horiz-adv-x="548" 
d="M143 196q15 -44 47 -69t76 -25q50 0 82.5 24.5t32.5 74.5q0 20 -9.5 36t-19.5 25t-31.5 18t-31.5 12t-33 9q-48 13 -82.5 26.5t-71 37.5t-56 61.5t-19.5 87.5q0 91 67.5 144.5t158.5 53.5q204 0 249 -167q6 -23 -8.5 -39.5t-42.5 -19.5q-59 -7 -74 31q-18 42 -44.5 61
t-75.5 19q-40 0 -68.5 -20t-28.5 -62q0 -18 9.5 -33t19.5 -23t30 -16.5t29 -11t30 -7.5q40 -10 68 -19.5t62 -27.5t55 -39t35.5 -55t14.5 -76q0 -103 -67 -162t-178 -59q-91 0 -161.5 47t-89.5 137q-10 51 43 63q27 6 50.5 -2.5t32.5 -34.5z" />
    <glyph glyph-name="T" unicode="T" horiz-adv-x="500" 
d="M57 700h386q42 0 42 -60t-42 -60h-127v-542q0 -47 -66 -47q-26 0 -46 11t-20 36v542h-127q-42 0 -42 60t42 60z" />
    <glyph glyph-name="U" unicode="U" horiz-adv-x="635" 
d="M197 658v-418q0 -59 31.5 -95t88.5 -36t89 36t32 95v418q0 46 66 46t66 -46v-406q0 -134 -68 -198.5t-185 -64.5q-116 0 -184 64.5t-68 198.5v406q0 46 66 46t66 -46z" />
    <glyph glyph-name="V" unicode="V" horiz-adv-x="560" 
d="M542 658l-179 -617q-15 -49 -82 -49q-66 0 -81 49l-182 617q-8 24 7.5 35t40.5 11q22 0 34.5 -1.5t29 -12.5t22.5 -33l109 -385q12 -41 20 -89q10 54 20 88l110 386q6 22 22 33t29 12.5t35 1.5q24 0 38.5 -11t6.5 -35z" />
    <glyph glyph-name="W" unicode="W" horiz-adv-x="837" 
d="M417 704q52 0 61 -47l81 -376q9 -29 19 -94q2 16 21 94l87 376q10 47 80 47q25 0 42.5 -12.5t11.5 -37.5l-151 -613q-12 -49 -86 -49q-67 0 -79 49l-71 294q-11 41 -16 75q-3 -19 -15 -75l-71 -294q-12 -49 -80 -49q-73 0 -85 47l-149 615q-6 25 11.5 37.5t42.5 12.5
q71 0 81 -47l84 -376q16 -67 21 -94q11 69 18 94l81 376q11 47 61 47z" />
    <glyph glyph-name="X" unicode="X" horiz-adv-x="542" 
d="M271 479l101 178q15 28 34.5 37.5t60.5 9.5q27 0 43.5 -11.5t2.5 -36.5l-170 -300l178 -314q14 -25 -3 -37.5t-44 -13.5q-74 -2 -99 44l-104 194l-104 -194q-25 -46 -99 -44q-27 1 -44 13.5t-3 37.5l178 314l-169 300q-14 25 2 36.5t43 11.5q41 0 60.5 -9.5t34.5 -37.5z
" />
    <glyph glyph-name="Y" unicode="Y" horiz-adv-x="523" 
d="M196 333l-184 318q-14 25 -0.5 39t38.5 14q43 0 62.5 -9.5t34.5 -36.5l116 -213l115 213q15 27 37 36.5t64 9.5q24 0 34 -11.5t-3 -39.5l-181 -320v-295q0 -47 -66 -47q-67 0 -67 47v295z" />
    <glyph glyph-name="Z" unicode="Z" horiz-adv-x="502" 
d="M424 0h-362q-47 0 -47 59q0 34 15 59l238 395q25 42 43 67h-252q-42 0 -42 60t42 60h361q47 0 47 -59q0 -32 -15 -59l-235 -397q-23 -38 -45 -64h252q42 0 42 -61q0 -60 -42 -60z" />
    <glyph glyph-name="bracketleft" unicode="[" horiz-adv-x="280" 
d="M144 700h94q37 0 37 -46q0 -49 -38 -49h-47q-17 0 -17 -15v-654q0 -15 17 -15h47q38 0 38 -49q0 -46 -37 -46h-94q-79 0 -79 80v714q0 80 79 80z" />
    <glyph glyph-name="backslash" unicode="\" horiz-adv-x="498" 
d="M114 660l373 -787q20 -44 -25 -52q-58 -11 -78 33l-373 787q-11 23 0 38.5t37 17.5q47 1 66 -37z" />
    <glyph glyph-name="bracketright" unicode="]" horiz-adv-x="281" 
d="M137 700q79 0 79 -80v-714q0 -80 -79 -80h-95q-35 0 -37 46q0 49 38 49h48q16 0 16 15v654q0 15 -16 15h-48q-38 0 -38 49q2 46 37 46h95z" />
    <glyph glyph-name="asciicircum" unicode="^" horiz-adv-x="501" 
d="M250 579l-111 -180q-24 -40 -74 -29q-23 5 -28.5 24t7.5 41l120 219q16 31 34.5 45t51.5 14q32 0 51 -14t36 -45l120 -219q13 -22 7.5 -41t-28.5 -24q-49 -11 -75 29z" />
    <glyph glyph-name="underscore" unicode="_" horiz-adv-x="543" 
d="M499 -165h-455q-39 0 -39 56q0 55 39 55h455q39 0 39 -55q0 -56 -39 -56z" />
    <glyph glyph-name="grave" unicode="`" horiz-adv-x="221" 
d="M192 596q15 -35 -24 -40q-36 -7 -58 17l-60 67q-17 19 -13.5 36t28.5 22q10 2 40 2q40 0 55 -30z" />
    <glyph glyph-name="a" unicode="a" 
d="M357 41q-61 -52 -150 -52q-71 0 -121.5 45t-50.5 119q0 200 301 182q1 89 -79 89q-20 0 -34.5 -1t-32 -6.5t-24.5 -8.5l-33 -14q-40 -17 -64 11q-15 17 -13 42t23 38q78 47 180 47q93 0 152 -46.5t59 -144.5v-231q0 -19 4 -67q2 -25 -11 -35t-39 -11q-26 0 -41 10t-26 34
zM336 237q-21 4 -50 1t-55 -8.5t-44 -25.5t-17 -51q1 -26 20 -41t50 -15q51 0 77 41t19 99z" />
    <glyph glyph-name="b" unicode="b" horiz-adv-x="585" 
d="M191 35q-7 -44 -65 -44q-61 0 -61 50v618q0 48 67 48t67 -48v-165q15 15 51 26.5t67 11.5q213 0 213 -271q0 -126 -54 -199t-162 -73q-75 0 -123 46zM199 278v-44q0 -53 25 -97t71 -44q95 0 95 168q0 167 -95 167q-34 0 -57 -25t-31 -57t-8 -68z" />
    <glyph glyph-name="c" unicode="c" horiz-adv-x="509" 
d="M35 259q0 269 229 269q85 0 140.5 -40.5t63.5 -108.5q4 -30 -9.5 -43t-48.5 -13q-50 1 -61 36q-10 34 -29.5 50t-55.5 16q-100 0 -100 -166t100 -166q60 0 88 65q14 35 64 37q31 1 46.5 -12t9.5 -39q-16 -71 -69.5 -112.5t-138.5 -41.5q-229 0 -229 269z" />
    <glyph glyph-name="d" unicode="d" horiz-adv-x="565" 
d="M253 532q64 0 113 -38v165q0 48 67 48t67 -48v-618q0 -50 -61 -50q-58 0 -65 44q-46 -46 -121 -46q-112 0 -165 72.5t-53 199.5q0 271 218 271zM268 93q46 0 72 45t26 96v44q0 32 -8.5 64t-32 59t-57.5 27q-93 0 -93 -167q0 -168 93 -168z" />
    <glyph glyph-name="e" unicode="e" horiz-adv-x="518" 
d="M273 428q-43 0 -68.5 -28t-30.5 -76h164q19 0 18 22q-3 39 -25.5 60.5t-57.5 21.5zM468 118q-19 -63 -71.5 -97.5t-125.5 -34.5q-117 1 -176 79t-60 197q0 55 13 102t39.5 85t72.5 60t107 22q101 0 158.5 -58.5t56.5 -155.5q-1 -49 -22 -67.5t-69 -18.5h-221
q2 -59 25 -97.5t79 -37.5q30 0 48 13t32 40q15 29 73 23q30 -3 38.5 -19.5t2.5 -34.5z" />
    <glyph glyph-name="f" unicode="f" horiz-adv-x="343" 
d="M95 39v371h-32q-48 0 -48 54t48 54h32v15q0 89 41 132.5t143 43.5q28 0 44 -4q35 -9 35 -59q-1 -29 -10.5 -41t-33.5 -11q-6 1 -20 1q-65 -2 -65 -60v-17h44q48 0 48 -54t-48 -54h-44v-371q0 -48 -67 -48t-67 48z" />
    <glyph glyph-name="g" unicode="g" horiz-adv-x="565" 
d="M374 485q7 43 65 43q61 0 61 -50v-430q0 -100 -47 -160.5t-133 -77.5q-108 -22 -206 8q-48 15 -40 79q3 27 18.5 39.5t37.5 5.5q95 -34 165 -11q71 23 71 101q-42 -37 -112 -37q-219 0 -219 263q0 272 219 272q72 0 120 -45zM366 241v44q0 50 -25 95.5t-71 45.5
q-95 0 -95 -168q0 -159 95 -159q49 0 72.5 44t23.5 98z" />
    <glyph glyph-name="h" unicode="h" horiz-adv-x="563" 
d="M199 658v-181q59 58 140 58q169 0 169 -179v-317q0 -48 -67 -48t-67 48v288q0 88 -59 88q-63 0 -89.5 -45.5t-26.5 -109.5v-221q0 -48 -67 -48t-67 48v618q0 50 67 50t67 -49z" />
    <glyph glyph-name="i" unicode="i" horiz-adv-x="276" 
d="M205 480v-441q0 -48 -67 -48t-67 48v441q0 48 67 48t67 -48zM138 707q40 0 56.5 -17t16.5 -49q0 -33 -15.5 -51.5t-57.5 -18.5q-43 0 -58 18t-15 52q0 33 16 49.5t57 16.5z" />
    <glyph glyph-name="j" unicode="j" horiz-adv-x="280" 
d="M209 480v-496q0 -85 -53.5 -126t-142.5 -32q-48 5 -48 69q0 30 15 43.5t47 13.5q48 0 48 59v469q0 48 67 48t67 -48zM142 707q41 0 57 -16.5t16 -49.5q0 -34 -15 -52t-58 -18q-42 0 -57.5 18.5t-15.5 51.5t16 49.5t57 16.5z" />
    <glyph glyph-name="k" unicode="k" horiz-adv-x="504" 
d="M200 658v-309l138 142q47 49 109 35q31 -8 38 -28.5t-13 -40.5l-140 -141l156 -265q14 -23 -5 -41.5t-51 -20.5q-34 -2 -48.5 6.5t-28.5 33.5l-112 197l-43 -44v-142q0 -49 -69 -49q-66 0 -66 49v618q0 49 66 49q69 0 69 -49z" />
    <glyph glyph-name="l" unicode="l" horiz-adv-x="264" 
d="M199 658v-619q0 -48 -67 -48t-67 48v619q0 49 67 49t67 -49z" />
    <glyph glyph-name="m" unicode="m" horiz-adv-x="846" 
d="M339 535q96 0 141 -78q63 78 155 78q80 0 118 -45t38 -138v-313q0 -48 -67 -48t-67 48v288q0 88 -58 88q-56 0 -80 -40t-24 -97v-239q0 -48 -67 -48q-68 0 -68 48v281q0 95 -61 95q-53 0 -76.5 -40.5t-23.5 -99.5v-236q0 -48 -67 -48t-67 48v442q0 48 59 48q58 0 64 -49
l2 -12q54 67 149 67z" />
    <glyph glyph-name="n" unicode="n" horiz-adv-x="563" 
d="M189 480l2 -12q54 67 148 67q169 0 169 -179v-317q0 -48 -67 -48t-67 48v288q0 36 -14.5 62t-50.5 26q-58 0 -84 -39.5t-26 -99.5v-237q0 -48 -67 -48t-67 48v442q0 47 59 47q30 0 45.5 -10t19.5 -38z" />
    <glyph glyph-name="o" unicode="o" horiz-adv-x="528" 
d="M35 259q0 269 229 269t229 -269t-229 -269t-229 269zM364 259q0 33 -3.5 58t-12.5 52t-30.5 41.5t-53.5 14.5t-53 -14.5t-30.5 -41.5t-12.5 -52t-3 -58q0 -166 99 -166q100 0 100 166z" />
    <glyph glyph-name="p" unicode="p" horiz-adv-x="566" 
d="M191 486q19 20 52 32.5t68 12.5q220 0 220 -271q0 -126 -54.5 -199t-165.5 -73q-72 0 -112 39v-165q0 -48 -67 -48t-67 48v617q0 51 61 51q58 0 65 -44zM199 242q0 -57 25 -103.5t74 -46.5q92 0 92 168q0 167 -92 167q-47 0 -73 -43.5t-26 -96.5v-45z" />
    <glyph glyph-name="q" unicode="q" horiz-adv-x="566" 
d="M375 487q7 41 65 41q61 0 61 -48v-617q0 -49 -67 -49t-67 49v164q-38 -38 -112 -38q-111 0 -165.5 73t-54.5 198q0 272 220 272q35 0 68 -12.5t52 -32.5zM367 243v44q0 53 -26 97t-73 44q-92 0 -92 -168q0 -167 92 -167q49 0 74 46.5t25 103.5z" />
    <glyph glyph-name="r" unicode="r" horiz-adv-x="368" 
d="M188 479q35 49 100 55q39 3 54.5 -10t15.5 -44q0 -26 -2 -38.5t-12.5 -22t-32.5 -10.5q-112 -5 -112 -123v-247q0 -48 -67 -48t-67 48v442q0 47 56 47q51 0 63 -36z" />
    <glyph glyph-name="s" unicode="s" horiz-adv-x="475" 
d="M83 182q53 8 71 -31q29 -57 95 -57q27 0 49.5 14.5t23.5 40.5q0 27 -24.5 39.5t-86.5 25.5q-37 8 -64 18t-54 27.5t-41 46t-14 66.5q0 74 59 117t137 43q150 0 189 -112q9 -26 -1 -39.5t-39 -17.5q-57 -7 -80 25q-27 40 -70 40q-70 0 -70 -45q0 -41 99 -58
q43 -8 73 -18.5t58 -28.5t42.5 -47t14.5 -69q0 -83 -58.5 -129t-141.5 -46q-159 0 -208 121q-26 62 41 74z" />
    <glyph glyph-name="t" unicode="t" horiz-adv-x="383" 
d="M95 607q0 48 67 48t67 -48v-89h56q48 0 48 -54t-48 -54h-56v-232q0 -36 19 -52t63 -11q32 4 44.5 -10.5t12.5 -46.5q0 -42 -30 -56q-26 -11 -70 -11q-94 0 -133.5 46.5t-39.5 132.5v240h-32q-48 0 -48 54t48 54h32v89z" />
    <glyph glyph-name="u" unicode="u" horiz-adv-x="557" 
d="M369 39l-3 11q-56 -65 -142 -65q-169 0 -169 179v316q0 48 67 48t67 -48v-287q0 -88 59 -88q58 0 84 38t26 97v240q0 48 67 48t67 -48v-439q0 -50 -61 -50q-51 0 -62 48z" />
    <glyph glyph-name="v" unicode="v" horiz-adv-x="491" 
d="M161 481l63 -223q5 -17 12 -51t10 -47q4 14 10 47.5t11 50.5l64 223q14 48 84 48q30 0 48 -11t10 -37l-142 -442q-15 -48 -85 -48q-71 0 -86 48l-142 442q-8 26 10 37t48 11q71 0 85 -48z" />
    <glyph glyph-name="w" unicode="w" horiz-adv-x="721" 
d="M155 483l56 -224q8 -31 16 -84q6 38 18 81l59 227q10 39 56 39t56 -39l59 -227q12 -43 18 -81q8 53 16 84l57 224q12 47 83 45q29 0 45 -10.5t9 -37.5l-117 -430q-9 -31 -28.5 -45t-60.5 -14q-65 0 -83 70l-35 132q-16 56 -19 88q-1 -11 -19 -88l-35 -132
q-18 -70 -83 -70q-41 0 -60.5 14t-28.5 45l-116 430q-8 27 8.5 37.5t46.5 10.5q70 0 82 -45z" />
    <glyph glyph-name="x" unicode="x" horiz-adv-x="461" 
d="M42 458q-14 22 -9 35.5t18 20t34 8.5q17 1 31.5 1t27.5 -7t20 -21l67 -126l66 126q11 20 30 24.5t50 2.5q33 -3 45.5 -17t-3.5 -47l-116 -188l131 -205q19 -28 9 -47t-45 -20q-19 -1 -35 -0.5t-31 8.5t-24 24l-77 143l-78 -143q-9 -16 -23.5 -24t-31 -8.5t-35.5 0.5
q-35 1 -45 20t9 47l132 205z" />
    <glyph glyph-name="y" unicode="y" horiz-adv-x="480" 
d="M458 454l-183 -520q-45 -129 -192 -105q-41 7 -41 62q0 30 13 45t42 11q23 -3 42.5 9t27.5 34l15 44l-160 417q-24 66 43 72q68 8 81 -28l99 -275l94 275q12 36 80 28q33 -3 42 -18.5t-3 -50.5z" />
    <glyph glyph-name="z" unicode="z" horiz-adv-x="415" 
d="M73 518h274q48 0 48 -54q0 -33 -18 -59l-160 -240q-25 -37 -49 -57h184q48 0 48 -54t-48 -54h-287q-50 0 -50 54q0 35 14 57l164 245q24 36 43 54h-163q-48 0 -48 54t48 54z" />
    <glyph glyph-name="braceleft" unicode="{" horiz-adv-x="295" 
d="M62 313q29 9 29 62v173q0 77 44 115.5t122 36.5q33 0 33 -48t-32 -48q-33 -1 -45.5 -15.5t-12.5 -48.5v-168q0 -74 -48 -109q48 -30 48 -110v-168q0 -34 12.5 -48.5t45.5 -15.5q32 0 32 -48t-33 -48q-77 -2 -121.5 37t-44.5 116v172q0 53 -29 63q-27 9 -27 50t27 50z" />
    <glyph glyph-name="bar" unicode="|" horiz-adv-x="228" 
d="M163 671v-823q0 -35 -49 -35t-49 35v823q0 34 49 34t49 -34z" />
    <glyph glyph-name="braceright" unicode="}" horiz-adv-x="295" 
d="M233 313q27 -9 27 -50t-27 -50q-29 -10 -29 -63v-172q0 -77 -44.5 -116t-121.5 -37q-33 0 -33 48t33 48q32 1 44.5 15.5t12.5 48.5v168q0 79 48 110q-48 35 -48 109v168q0 34 -12.5 48.5t-44.5 15.5q-33 0 -33 48t33 48q78 2 122 -36.5t44 -115.5v-173q0 -53 29 -62z" />
    <glyph glyph-name="asciitilde" unicode="~" horiz-adv-x="565" 
d="M408 266q-62 -8 -143 26q-51 20 -84 20q-40 2 -73 -27q-35 -30 -66 1q-31 28 -7 59q52 66 125 77q63 8 144 -25q49 -21 84 -21q42 0 73 27q34 30 67 -3q25 -23 -1 -58q-46 -65 -119 -76z" />
    <glyph glyph-name="exclamdown" unicode="&#xa1;" horiz-adv-x="264" 
d="M132 -187q-80 0 -76 62l30 420q3 36 46 36t46 -36l30 -420q4 -62 -76 -62zM132 384q-42 0 -58.5 18.5t-16.5 54.5q0 35 15.5 54t59.5 19q75 0 75 -73q0 -36 -16.5 -54.5t-58.5 -18.5z" />
    <glyph glyph-name="cent" unicode="&#xa2;" horiz-adv-x="508" 
d="M217 -6l-41 -143q-4 -16 -19.5 -23.5t-30.5 -4.5q-43 2 -30 47l44 148q-105 59 -105 241q0 270 229 270h20l46 154q5 26 45 24q20 0 27.5 -13t1.5 -33l-42 -152q94 -40 106 -129q3 -31 -10.5 -43t-49.5 -12q-48 0 -62 34q-5 27 -15 37l-83 -301q3 -1 16 -1q58 0 89 63
q11 35 61 38q32 2 47.5 -11.5t9.5 -39.5q-16 -72 -68.5 -112t-138.5 -40q-21 0 -47 2zM177 153l79 274q-93 -8 -93 -168q0 -61 14 -106z" />
    <glyph glyph-name="sterling" unicode="&#xa3;" horiz-adv-x="574" 
d="M371 298h-90q9 -79 -46 -160q55 5 108 -9q47 -15 74.5 -15t56.5 17q56 26 82 -28q22 -46 -17 -78q-43 -33 -112 -33q-34 0 -87 16t-69 19q-14 4 -28.5 4.5t-23 0.5t-25.5 -5.5t-21 -7t-26 -11t-25 -10.5q-27 -11 -46 -2t-31 30q-14 25 -8 47.5t30 36.5q44 29 66 88
t16 100h-27q-24 0 -38.5 17t-14.5 42q0 23 12.5 39.5t36.5 16.5l-6.5 26.5t-6.5 29t-4 27t-1 31.5q7 92 68 139.5t155 47.5q90 0 144 -42t65 -120q6 -28 -5.5 -47t-38.5 -22q-28 -3 -51 7.5t-29 32.5q-9 39 -26 57.5t-62 18.5q-83 -3 -85 -76q-2 -26 -0.5 -37.5t8.5 -37
t9 -34.5h119q24 0 38.5 -16t14.5 -41t-14.5 -42t-38.5 -17z" />
    <glyph glyph-name="currency" unicode="&#xa4;" horiz-adv-x="606" 
d="M355 384q39 0 62.5 28.5t23.5 72.5q0 42 -23 68.5t-63 26.5h-112q-17 0 -17 -17v-179h129zM375 217q52 0 52 -60q0 -59 -52 -59h-149v-61q0 -45 -65 -45q-68 0 -68 45v61h-21q-52 0 -52 59q0 60 52 60h21v49h-21q-52 0 -52 60q0 58 52 58h21v228q0 52 26.5 70t71.5 18
h177q92 0 152.5 -60.5t60.5 -154.5q0 -97 -60.5 -158t-152.5 -61h-142v-49h149z" />
    <glyph glyph-name="yen" unicode="&#xa5;" horiz-adv-x="524" 
d="M197 228h-102q-49 0 -49 52q0 55 49 55h100l-183 314q-14 25 0.5 40t39.5 17q41 1 61.5 -10t35.5 -41l115 -210l114 210q15 30 38 41t66 10q14 -1 23 -6t13 -16.5t-8 -30.5l-179 -318h99q52 0 52 -55q0 -21 -12.5 -36.5t-39.5 -15.5h-99v-41h99q27 0 39.5 -16t12.5 -39
q0 -24 -12.5 -40t-39.5 -16h-99v-37q0 -46 -67 -46t-67 46v37h-102q-49 0 -49 56q0 55 49 55h102v41z" />
    <glyph glyph-name="brokenbar" unicode="&#xa6;" horiz-adv-x="232" 
d="M167 133v-290q0 -45 -54 -45q-48 0 -48 45v290q0 44 48 44q54 0 54 -44zM167 667v-291q0 -44 -54 -44q-48 0 -48 44v291q0 41 48 41q54 0 54 -41z" />
    <glyph glyph-name="section" unicode="&#xa7;" horiz-adv-x="507" 
d="M113 18q56 6 64 -31q8 -33 30.5 -52t56.5 -19q29 0 50 15t21 45q0 48 -97 83q-43 15 -73 30t-59 39t-44 58t-14 77q1 78 56 142q-58 55 -58 128q0 82 57.5 128t140.5 46q72 0 128 -36.5t70 -104.5q12 -52 -47 -57q-27 -2 -43.5 3.5t-20.5 27.5q-7 32 -31 49t-58 17
q-29 0 -49 -14.5t-20 -45.5q0 -46 97 -79q90 -32 140 -77t50 -127q0 -78 -56 -142q58 -55 58 -131q0 -80 -57 -125.5t-138 -45.5q-74 0 -131.5 37.5t-70.5 108.5q-8 48 48 53zM193 351q-18 -26 -20 -68q-2 -50 60 -78q15 -7 43.5 -16.5t38.5 -13.5q18 26 20 68q1 49 -55 76
q-16 8 -48 18.5t-39 13.5z" />
    <glyph glyph-name="dieresis" unicode="&#xa8;" horiz-adv-x="340" 
d="M252 700q63 0 63 -60q0 -30 -14 -44.5t-49 -14.5q-59 0 -59 59q0 60 59 60zM85 700q59 0 59 -60q0 -30 -13 -44.5t-46 -14.5q-34 0 -47 14.5t-13 44.5q0 60 60 60z" />
    <glyph glyph-name="copyright" unicode="&#xa9;" horiz-adv-x="774" 
d="M387 709q141 0 246.5 -106t105.5 -256q0 -94 -46 -177.5t-127.5 -134.5t-178.5 -51q-145 0 -248.5 106.5t-103.5 256.5t103 256t249 106zM387 77q105 0 183.5 79.5t78.5 190.5q0 107 -76.5 188t-185.5 81t-185.5 -78.5t-76.5 -190.5t76.5 -191t185.5 -79zM391 567
q52 0 94 -27.5t59 -78.5q9 -26 0.5 -38t-31.5 -17q-27 -6 -42.5 1.5t-25.5 32.5q-13 38 -55 38q-46 0 -64 -39t-18 -90t19 -88.5t64 -37.5q20 0 37 12t24 33q8 22 20.5 28.5t35.5 4.5q55 -5 36 -63q-15 -48 -57 -76.5t-96 -28.5q-93 1 -138 60.5t-45 155.5t45 157t138 61z
" />
    <glyph glyph-name="guillemotleft" unicode="&#xab;" horiz-adv-x="376" 
d="M190 300l65 113q19 32 61 19q34 -9 21 -44l-37 -104q-4 -9 -4 -16q0 -6 4 -17l37 -103q13 -35 -21 -44q-42 -13 -61 19l-65 112q-11 20 -11 33q0 14 11 32zM46 300l66 113q18 33 60 19q34 -9 22 -44l-38 -104q-4 -9 -4 -16q0 -6 4 -17l38 -103q12 -35 -22 -44
q-42 -14 -60 19l-66 112q-11 24 -11 33q0 10 11 32z" />
    <glyph glyph-name="logicalnot" unicode="&#xac;" horiz-adv-x="547" 
d="M411 507q86 0 86 -81v-177q0 -41 -48 -41q-47 0 -47 41v135q0 17 -18 17h-305q-44 0 -44 52q0 54 44 54h332z" />
    <glyph glyph-name="uni00AD" unicode="&#xad;" horiz-adv-x="350" 
d="M276 206h-203q-38 0 -38 55q0 56 38 56h203q39 0 39 -56q0 -55 -39 -55z" />
    <glyph glyph-name="registered" unicode="&#xae;" horiz-adv-x="774" 
d="M387 709q146 0 249 -106t103 -256t-103 -256.5t-249 -106.5q-145 0 -248.5 106.5t-103.5 256.5t103 256t249 106zM387 616q-109 0 -185.5 -78.5t-76.5 -190.5t76.5 -191t185.5 -79t185.5 79t76.5 191t-76.5 190.5t-185.5 78.5zM299 144q-50 -2 -50 37v304q0 34 21 52.5
t56 18.5h83q61 0 100.5 -35t39.5 -96q0 -34 -18.5 -60t-47.5 -36q25 -18 44 -69t28 -65q12 -19 -2.5 -31t-35.5 -14q-26 -2 -41.5 2t-26.5 22q-12 21 -23 64q-7 30 -18.5 45.5t-34.5 15.5h-26v-119q0 -36 -48 -36zM347 385h53q47 0 47 41q0 40 -45 40h-44q-11 0 -11 -12v-69
z" />
    <glyph glyph-name="degree" unicode="&#xb0;" horiz-adv-x="365" 
d="M183 649q-29 0 -48 -19t-19 -46q0 -29 19 -48.5t48 -19.5q28 0 48.5 19.5t20.5 48.5q0 27 -21 46t-48 19zM183 716q54 0 93 -39.5t39 -92.5q0 -56 -38.5 -95t-93.5 -39q-54 0 -93.5 39t-39.5 95q0 53 40 92.5t93 39.5z" />
    <glyph glyph-name="plusminus" unicode="&#xb1;" horiz-adv-x="567" 
d="M340 597v-153h155q37 0 37 -54q0 -57 -37 -57h-155v-156q0 -38 -55 -38q-57 0 -57 38v156h-154q-39 0 -39 57q0 54 39 54h154v153q0 22 16.5 32t40.5 10q23 0 39 -10t16 -32zM495 0h-421q-39 0 -39 56q0 53 39 53h421q37 0 37 -53q0 -56 -37 -56z" />
    <glyph glyph-name="twosuperior" unicode="&#xb2;" horiz-adv-x="344" 
d="M266 343h-183q-20 0 -34 12t-14 34q0 27 26.5 54.5t70 58t55.5 41.5q24 27 24 50q0 16 -11 27t-32 11q-13 0 -22.5 -5.5t-13 -12t-7.5 -16.5q-7 -31 -49 -25q-16 1 -27 10.5t-10 27.5q4 47 42 75.5t88 28.5q58 0 95.5 -32.5t37.5 -88.5q0 -29 -17 -56t-33.5 -41t-50 -37
t-42.5 -30h107q20 0 31.5 -12.5t11.5 -32.5q0 -19 -11.5 -30t-31.5 -11z" />
    <glyph glyph-name="threesuperior" unicode="&#xb3;" horiz-adv-x="326" 
d="M80 700h164q43 0 43 -39q0 -10 -14 -35l-64 -58q40 -12 66 -40t26 -66q0 -60 -37 -95t-98 -35q-92 0 -126 70q-7 17 -2 30.5t18 20.5q12 8 29 6t26 -15q18 -32 56 -32q18 0 30.5 11.5t12.5 32.5q1 30 -23 38.5t-47 -0.5q-33 -4 -44 22q-15 25 8 49l49 52h-73
q-18 0 -27.5 10.5t-9.5 27.5q0 45 37 45z" />
    <glyph glyph-name="acute" unicode="&#xb4;" horiz-adv-x="232" 
d="M54 596l35 74q14 30 53 30q27 0 39 -2q27 -5 30 -22t-15 -36l-59 -67q-23 -24 -58 -17q-39 5 -25 40z" />
    <glyph glyph-name="mu" unicode="&#xb5;" horiz-adv-x="595" 
d="M404 50q-32 -59 -105 -59q-33 0 -61.5 16.5t-43.5 43.5v-182q0 -25 -17.5 -40.5t-43.5 -15.5q-27 0 -47.5 15.5t-20.5 40.5v610q0 26 19.5 39t48.5 13q61 0 61 -52v-206q0 -79 31.5 -126t74.5 -47q38 0 63 32t33 69t8 75v203q0 52 62 52q27 0 45.5 -13t18.5 -39v-437
q0 -26 -16.5 -40t-41.5 -14q-65 0 -68 62z" />
    <glyph glyph-name="mu" unicode="&#x3bc;" horiz-adv-x="595" 
d="M404 50q-32 -59 -105 -59q-33 0 -61.5 16.5t-43.5 43.5v-182q0 -25 -17.5 -40.5t-43.5 -15.5q-27 0 -47.5 15.5t-20.5 40.5v610q0 26 19.5 39t48.5 13q61 0 61 -52v-206q0 -79 31.5 -126t74.5 -47q38 0 63 32t33 69t8 75v203q0 52 62 52q27 0 45.5 -13t18.5 -39v-437
q0 -26 -16.5 -40t-41.5 -14q-65 0 -68 62z" />
    <glyph glyph-name="paragraph" unicode="&#xb6;" horiz-adv-x="639" 
d="M305 610h-49q-50 0 -74.5 -18t-24.5 -65q0 -48 28 -66.5t78 -18.5h42v168zM35 527q0 173 222 173h307q41 0 39 -48q0 -42 -39 -42h-20v-749q0 -38 -47 -38q-45 0 -45 39l-1 748h-54v-748q0 -41 -47 -39q-45 0 -45 39v497h-48q-222 0 -222 168z" />
    <glyph glyph-name="periodcentered" unicode="&#xb7;" horiz-adv-x="327" 
d="M163 278q-42 0 -57.5 18.5t-15.5 54.5q0 35 15.5 54t57.5 19q44 0 59 -19t15 -54t-16 -54t-58 -19z" />
    <glyph glyph-name="cedilla" unicode="&#xb8;" horiz-adv-x="294" 
d="M172 6l-14 -30q108 -2 111 -82q0 -59 -55 -89q-31 -14 -73 -14q-60 0 -93 15q-29 15 -21 49q6 16 19 22.5t32 -2.5q30 -12 61 -12q36 0 36 27q0 26 -37 28q-8 0 -21 -0.5t-16 -0.5q-22 -2 -30.5 10t-0.5 32l15 47h87z" />
    <glyph glyph-name="onesuperior" unicode="&#xb9;" horiz-adv-x="273" 
d="M223 663v-287q0 -20 -12.5 -30.5t-31.5 -10.5q-47 0 -47 41v220l-33 -20q-20 -9 -36 -4t-25 19q-13 36 26 56l79 50q26 16 58 5q22 -11 22 -39z" />
    <glyph glyph-name="ordmasculine" unicode="&#xba;" horiz-adv-x="409" 
d="M374 520q0 -85 -44 -136q-48 -51 -124 -51q-78 0 -126 51q-45 48 -45 136q0 85 45 134q48 53 126 53q76 0 124 -53q44 -51 44 -134zM131 520q0 -48 21 -80q20 -26 54 -26t50 26q22 24 22 80t-22 79q-16 26 -50 26q-36 0 -54 -26q-21 -30 -21 -79z" />
    <glyph glyph-name="guillemotright" unicode="&#xbb;" horiz-adv-x="376" 
d="M186 300q11 -18 11 -32q0 -13 -11 -33l-65 -112q-18 -33 -61 -19q-34 9 -21 44l38 103q3 12 3 17q0 6 -3 16l-38 104q-13 35 21 44q43 14 61 -19zM330 300q11 -18 11 -32q0 -13 -11 -33l-65 -112q-19 -32 -61 -19q-34 9 -21 44l37 103q4 11 4 17q0 7 -4 16l-37 104
q-13 35 21 44q42 13 61 -19z" />
    <glyph glyph-name="onequarter" unicode="&#xbc;" horiz-adv-x="727" 
d="M225 663v-287q0 -41 -47 -41q-20 0 -34 10.5t-14 30.5v220l-31 -20q-21 -9 -36.5 -4t-22.5 19q-16 32 21 56l82 50q25 16 58 5q24 -11 24 -39zM649 315v-170q43 0 43 -41q0 -18 -12 -29t-31 -11v-39q0 -37 -47 -37q-45 0 -45 37v39h-121q-29 0 -39 23.5t7 45.5l129 190
q25 34 62 34q23 0 38.5 -10.5t15.5 -31.5zM557 214l-49 -69h49v69zM593 663l-385 -650q-18 -36 -60 -36q-24 0 -35.5 13.5t0.5 35.5l382 653q19 37 58 37q27 0 40 -14.5t0 -38.5z" />
    <glyph glyph-name="onehalf" unicode="&#xbd;" horiz-adv-x="770" 
d="M593 663l-383 -650q-23 -36 -60 -36q-27 0 -38 13.5t2 35.5l381 653q19 37 57 37q28 0 41 -14.5t0 -38.5zM698 0h-186q-21 0 -34 12.5t-13 32.5q0 28 26.5 55.5t70 58t56.5 43.5q23 20 23 49q0 36 -45 36q-31 0 -41 -33q-4 -14 -18.5 -21t-30.5 -5q-18 3 -29 12t-10 25
q1 49 41.5 78t91.5 27q58 0 95 -31t37 -88q0 -29 -16 -55.5t-34 -41t-49.5 -37t-43.5 -33.5h109q17 0 27 -11.5t10 -29.5q0 -19 -10 -31t-27 -12zM224 663v-287q0 -20 -14 -30.5t-33 -10.5q-20 0 -34 10.5t-14 30.5v220l-32 -20q-21 -9 -36 -4t-22 19q-16 35 25 56l81 50
q23 17 54 5q25 -10 25 -39z" />
    <glyph glyph-name="threequarters" unicode="&#xbe;" horiz-adv-x="753" 
d="M676 315v-170q42 0 42 -41q0 -18 -11.5 -29t-30.5 -11v-39q0 -18 -14 -27.5t-34 -9.5t-33.5 9.5t-13.5 27.5v39h-120q-27 0 -38 23.5t5 45.5l129 190q27 34 64 34q23 0 39 -11t16 -31zM581 214l-48 -69h48v69zM626 663l-382 -650q-23 -36 -62 -36q-26 0 -37.5 13.5
t0.5 35.5l383 653q22 37 58 37q25 0 38.5 -14.5t1.5 -38.5zM85 700h163q18 0 30.5 -11t12.5 -28q0 -14 -19 -35l-63 -58q43 -12 70 -39.5t27 -66.5q0 -59 -38.5 -94.5t-101.5 -35.5q-91 0 -127 70q-15 33 18 51q11 8 27.5 6t26.5 -15q21 -32 58 -32q19 0 31 11.5t12 32.5
q0 30 -24 38.5t-46 -0.5q-32 -3 -46 22q-15 22 8 49l48 52h-67q-18 0 -30 11t-12 27q0 20 12 32.5t30 12.5z" />
    <glyph glyph-name="questiondown" unicode="&#xbf;" horiz-adv-x="484" 
d="M258 384q-42 0 -57.5 18.5t-15.5 54.5q0 73 73 73q43 0 59.5 -19t16.5 -54q0 -36 -17 -54.5t-59 -18.5zM459 -84q-65 -99 -202 -102q-94 -2 -158 49q-81 63 -73 162q2 50 28.5 88t75.5 77q56 55 83 108q18 34 57 27q44 -6 41 -45q-2 -15 -5.5 -28.5t-11.5 -27l-13.5 -23
t-17.5 -24t-17.5 -20.5l-20.5 -21.5t-18 -19.5q-50 -56 -50 -98t30.5 -68.5t73.5 -26.5q67 0 115 56q14 19 34.5 19t38.5 -19q16 -11 19 -30t-9 -33z" />
    <glyph glyph-name="Agrave" unicode="&#xc0;" horiz-adv-x="604" 
d="M373 277l-48 146q-16 49 -23 96q-7 -47 -23 -96l-48 -146h142zM192 160l-39 -120q-10 -29 -28 -38t-47 -9q-20 0 -34 3t-23.5 14t-2.5 30l207 620q17 50 77 50t77 -50l207 -620q9 -27 -9.5 -37t-50.5 -10q-29 0 -47 9t-28 38l-39 120h-220zM348 786q15 -35 -24 -40
q-36 -7 -58 17l-60 67q-17 19 -13.5 36t28.5 22q10 2 40 2q40 0 55 -30z" />
    <glyph glyph-name="Aacute" unicode="&#xc1;" horiz-adv-x="604" 
d="M373 277l-48 146q-16 49 -23 96q-7 -47 -23 -96l-48 -146h142zM192 160l-39 -120q-10 -29 -28 -38t-47 -9q-20 0 -34 3t-23.5 14t-2.5 30l207 620q17 50 77 50t77 -50l207 -620q9 -27 -9.5 -37t-50.5 -10q-29 0 -47 9t-28 38l-39 120h-220zM265 786l35 74q14 30 53 30
q27 0 39 -2q27 -5 30 -22t-15 -36l-59 -67q-23 -24 -58 -17q-39 5 -25 40z" />
    <glyph glyph-name="Acircumflex" unicode="&#xc2;" horiz-adv-x="604" 
d="M373 277l-48 146q-16 49 -23 96q-7 -47 -23 -96l-48 -146h142zM192 160l-39 -120q-10 -29 -28 -38t-47 -9q-20 0 -34 3t-23.5 14t-2.5 30l207 620q17 50 77 50t77 -50l207 -620q9 -27 -9.5 -37t-50.5 -10q-29 0 -47 9t-28 38l-39 120h-220zM263 890h76q23 0 40 -17
l57 -75q17 -17 13 -31.5t-29 -20.5q-32 -8 -55 13l-65 60l-62 -60q-24 -21 -56 -13q-24 6 -28 20.5t11 31.5l61 75q15 17 37 17z" />
    <glyph glyph-name="Atilde" unicode="&#xc3;" horiz-adv-x="604" 
d="M373 277l-48 146q-16 49 -23 96q-7 -47 -23 -96l-48 -146h142zM192 160l-39 -120q-10 -29 -28 -38t-47 -9q-20 0 -34 3t-23.5 14t-2.5 30l207 620q17 50 77 50t77 -50l207 -620q9 -27 -9.5 -37t-50.5 -10q-29 0 -47 9t-28 38l-39 120h-220zM194 775q-20 -26 -44 -14
q-12 2 -18 14.5t-4 25.5q7 36 38 61q29 24 68 24q38 0 75 -24t57 -24q28 0 42 30q8 24 41 18q32 -9 23 -36q-10 -45 -32 -67t-64 -22q-31 0 -72.5 22.5t-67.5 22.5q-27 0 -42 -31z" />
    <glyph glyph-name="Adieresis" unicode="&#xc4;" horiz-adv-x="604" 
d="M373 277l-48 146q-16 49 -23 96q-7 -47 -23 -96l-48 -146h142zM192 160l-39 -120q-10 -29 -28 -38t-47 -9q-20 0 -34 3t-23.5 14t-2.5 30l207 620q17 50 77 50t77 -50l207 -620q9 -27 -9.5 -37t-50.5 -10q-29 0 -47 9t-28 38l-39 120h-220zM384 890q63 0 63 -60
q0 -30 -14 -44.5t-49 -14.5q-59 0 -59 59q0 60 59 60zM217 890q59 0 59 -60q0 -30 -13 -44.5t-46 -14.5q-34 0 -47 14.5t-13 44.5q0 60 60 60z" />
    <glyph glyph-name="Aring" unicode="&#xc5;" horiz-adv-x="604" 
d="M304 810q-20 0 -33.5 -12.5t-13.5 -31.5q0 -18 13.5 -31.5t33.5 -13.5q18 0 31 13.5t13 31.5q0 19 -13 31.5t-31 12.5zM304 855q36 0 61 -26.5t25 -62.5q0 -40 -26 -64l221 -661q11 -28 -7.5 -37.5t-52.5 -9.5q-28 0 -45.5 9t-27.5 38l-38 119h-221l-40 -119
q-10 -29 -27.5 -38t-45.5 -9q-20 0 -34 2.5t-24 13.5t-4 31l221 663q-25 25 -25 62q0 36 26 62.5t64 26.5zM231 276h145l-50 148q-14 40 -22 94q-15 -64 -25 -94z" />
    <glyph glyph-name="AE" unicode="&#xc6;" horiz-adv-x="891" 
d="M273 276h164v304q-24 0 -35 -21zM811 580h-223q-16 0 -16 -17v-142h201q44 0 44 -60q0 -58 -44 -58h-201v-165q0 -11 3.5 -14.5t12.5 -3.5h223q45 0 45 -59q0 -61 -45 -61h-277q-97 0 -97 86v74h-216l-53 -119q-24 -47 -88 -47q-16 0 -27 1.5t-23.5 6.5t-13.5 14t4 25
l266 572q22 49 57.5 68t90.5 19h377q45 0 45 -60t-45 -60z" />
    <glyph glyph-name="Ccedilla" unicode="&#xc7;" horiz-adv-x="595" 
d="M35 351q0 172 66 266t219 94q114 0 174.5 -61t70.5 -163q2 -21 -17.5 -33.5t-46.5 -12.5q-31 0 -48 8.5t-21 32.5q-14 61 -39 87.5t-81 26.5q-145 0 -145 -245t145 -245q55 0 80 29t41 86q12 42 71 42q37 0 53 -14t11 -47q-17 -87 -75 -146t-161 -64l-8 -16
q109 -2 109 -82q0 -60 -54 -89q-29 -14 -71 -14q-60 0 -91 15q-31 13 -23 49q4 15 17 22t30 -2q42 -12 65 -12q17 0 27 7.5t10 19.5q0 26 -43 28q-6 0 -17.5 -0.5t-13.5 -0.5q-22 -2 -32 10t-4 32l14 37q-212 35 -212 355z" />
    <glyph glyph-name="Egrave" unicode="&#xc8;" horiz-adv-x="515" 
d="M215 580q-17 0 -17 -17v-141h203q42 0 42 -60t-42 -60h-203v-165q0 -17 17 -17h223q42 0 42 -60t-42 -60h-275q-45 0 -71.5 18.5t-26.5 69.5v524q0 51 26.5 69.5t71.5 18.5h275q42 0 42 -60t-42 -60h-223zM323 786q15 -35 -24 -40q-36 -7 -58 17l-60 67q-17 19 -13.5 36
t28.5 22q10 2 40 2q40 0 55 -30z" />
    <glyph glyph-name="Eacute" unicode="&#xc9;" horiz-adv-x="515" 
d="M215 580q-17 0 -17 -17v-141h203q42 0 42 -60t-42 -60h-203v-165q0 -17 17 -17h223q42 0 42 -60t-42 -60h-275q-45 0 -71.5 18.5t-26.5 69.5v524q0 51 26.5 69.5t71.5 18.5h275q42 0 42 -60t-42 -60h-223zM230 786l35 74q14 30 53 30q27 0 39 -2q27 -5 30 -22t-15 -36
l-59 -67q-23 -24 -58 -17q-39 5 -25 40z" />
    <glyph glyph-name="Ecircumflex" unicode="&#xca;" horiz-adv-x="515" 
d="M215 580q-17 0 -17 -17v-141h203q42 0 42 -60t-42 -60h-203v-165q0 -17 17 -17h223q42 0 42 -60t-42 -60h-275q-45 0 -71.5 18.5t-26.5 69.5v524q0 51 26.5 69.5t71.5 18.5h275q42 0 42 -60t-42 -60h-223zM239 890h76q23 0 40 -17l57 -75q17 -17 13 -31.5t-29 -20.5
q-32 -8 -55 13l-65 60l-62 -60q-24 -21 -56 -13q-24 6 -28 20.5t11 31.5l61 75q15 17 37 17z" />
    <glyph glyph-name="Edieresis" unicode="&#xcb;" horiz-adv-x="515" 
d="M215 580q-17 0 -17 -17v-141h203q42 0 42 -60t-42 -60h-203v-165q0 -17 17 -17h223q42 0 42 -60t-42 -60h-275q-45 0 -71.5 18.5t-26.5 69.5v524q0 51 26.5 69.5t71.5 18.5h275q42 0 42 -60t-42 -60h-223zM359 890q63 0 63 -60q0 -30 -14 -44.5t-49 -14.5q-59 0 -59 59
q0 60 59 60zM192 890q59 0 59 -60q0 -30 -13 -44.5t-46 -14.5q-34 0 -47 14.5t-13 44.5q0 60 60 60z" />
    <glyph glyph-name="Igrave" unicode="&#xcc;" horiz-adv-x="263" 
d="M198 658v-620q0 -47 -67 -47q-66 0 -66 47v620q0 46 66 46q67 0 67 -46zM167 786q15 -35 -24 -40q-36 -7 -58 17l-60 67q-17 19 -13.5 36t28.5 22q10 2 40 2q40 0 55 -30z" />
    <glyph glyph-name="Iacute" unicode="&#xcd;" horiz-adv-x="263" 
d="M198 658v-620q0 -47 -67 -47q-66 0 -66 47v620q0 46 66 46q67 0 67 -46zM94 786l35 74q14 30 53 30q27 0 39 -2q27 -5 30 -22t-15 -36l-59 -67q-23 -24 -58 -17q-39 5 -25 40z" />
    <glyph glyph-name="Icircumflex" unicode="&#xce;" horiz-adv-x="263" 
d="M198 658v-620q0 -47 -67 -47q-66 0 -66 47v620q0 46 66 46q67 0 67 -46zM93 890h76q23 0 40 -17l57 -75q17 -17 13 -31.5t-29 -20.5q-32 -8 -55 13l-65 60l-62 -60q-24 -21 -56 -13q-24 6 -28 20.5t11 31.5l61 75q15 17 37 17z" />
    <glyph glyph-name="Idieresis" unicode="&#xcf;" horiz-adv-x="263" 
d="M198 658v-620q0 -47 -67 -47q-66 0 -66 47v620q0 46 66 46q67 0 67 -46zM214 880q63 0 63 -60q0 -30 -14 -44.5t-49 -14.5q-59 0 -59 59q0 60 59 60zM47 880q59 0 59 -60q0 -30 -13 -44.5t-46 -14.5q-34 0 -47 14.5t-13 44.5q0 60 60 60z" />
    <glyph glyph-name="Eth" unicode="&#xd0;" horiz-adv-x="639" 
d="M88 411v200q0 89 99 89h139q95 0 159.5 -49.5t91.5 -126t27 -173.5q0 -99 -27 -175.5t-91.5 -126t-159.5 -49.5h-139q-99 0 -99 86v214h-36q-19 0 -28 16t-9 38q0 23 9 40t28 17h36zM242 580q-21 0 -21 -17v-152h118q39 0 39 -57q0 -54 -39 -54h-118v-162q0 -18 21 -18
h84q40 0 69 21.5t44 57.5t21.5 73.5t6.5 78.5q0 40 -7 77.5t-21.5 73t-44 57t-68.5 21.5h-84z" />
    <glyph glyph-name="Ntilde" unicode="&#xd1;" horiz-adv-x="644" 
d="M205 671l197 -334q29 -47 47 -90v411q0 46 65 46t65 -46v-620q0 -47 -70 -47q-51 0 -71 33l-197 334q-27 46 -46 94v-414q0 -47 -65 -47t-65 47v620q0 46 69 46q53 0 71 -33zM214 765q-20 -26 -44 -14q-12 2 -18 14.5t-4 25.5q7 36 38 61q29 24 68 24q37 0 75 -24t57 -24
q28 0 42 30q8 24 41 18q32 -9 23 -36q-10 -45 -32 -67t-64 -22q-31 0 -72.5 22.5t-67.5 22.5q-27 0 -42 -31z" />
    <glyph glyph-name="Ograve" unicode="&#xd2;" horiz-adv-x="638" 
d="M35 350q0 361 284 361t284 -361t-284 -361t-284 361zM467 350q0 244 -148 244q-47 0 -78 -21.5t-45.5 -60.5t-19.5 -76.5t-5 -85.5q0 -243 148 -243t148 243zM365 786q15 -35 -24 -40q-36 -7 -58 17l-60 67q-17 19 -13.5 36t28.5 22q10 2 40 2q40 0 55 -30z" />
    <glyph glyph-name="Oacute" unicode="&#xd3;" horiz-adv-x="638" 
d="M35 350q0 361 284 361t284 -361t-284 -361t-284 361zM467 350q0 244 -148 244q-47 0 -78 -21.5t-45.5 -60.5t-19.5 -76.5t-5 -85.5q0 -243 148 -243t148 243zM282 786l35 74q14 30 53 30q27 0 39 -2q27 -5 30 -22t-15 -36l-59 -67q-23 -24 -58 -17q-39 5 -25 40z" />
    <glyph glyph-name="Ocircumflex" unicode="&#xd4;" horiz-adv-x="638" 
d="M35 350q0 361 284 361t284 -361t-284 -361t-284 361zM467 350q0 244 -148 244q-47 0 -78 -21.5t-45.5 -60.5t-19.5 -76.5t-5 -85.5q0 -243 148 -243t148 243zM280 890h76q23 0 40 -17l57 -75q17 -17 13 -31.5t-29 -20.5q-32 -8 -55 13l-65 60l-62 -60q-24 -21 -56 -13
q-24 6 -28 20.5t11 31.5l61 75q15 17 37 17z" />
    <glyph glyph-name="Otilde" unicode="&#xd5;" horiz-adv-x="638" 
d="M35 350q0 361 284 361t284 -361t-284 -361t-284 361zM467 350q0 244 -148 244q-47 0 -78 -21.5t-45.5 -60.5t-19.5 -76.5t-5 -85.5q0 -243 148 -243t148 243zM211 775q-20 -26 -44 -14q-12 2 -18 14.5t-4 25.5q7 36 38 61q29 24 68 24q37 0 75 -24t57 -24q28 0 42 30
q8 24 41 18q32 -9 23 -36q-10 -45 -32 -67t-64 -22q-31 0 -72.5 22.5t-67.5 22.5q-27 0 -42 -31z" />
    <glyph glyph-name="Odieresis" unicode="&#xd6;" horiz-adv-x="638" 
d="M35 350q0 361 284 361t284 -361t-284 -361t-284 361zM467 350q0 244 -148 244q-47 0 -78 -21.5t-45.5 -60.5t-19.5 -76.5t-5 -85.5q0 -243 148 -243t148 243zM401 890q63 0 63 -60q0 -30 -14 -44.5t-49 -14.5q-59 0 -59 59q0 60 59 60zM234 890q59 0 59 -60
q0 -30 -13 -44.5t-46 -14.5q-34 0 -47 14.5t-13 44.5q0 60 60 60z" />
    <glyph glyph-name="multiply" unicode="&#xd7;" horiz-adv-x="470" 
d="M235 419l114 112q22 25 57 -8q33 -33 9 -60l-113 -110l113 -114q21 -21 -9 -59q-36 -32 -57 -6l-114 112l-112 -112q-23 -26 -61 6q-30 38 -6 59l112 114l-112 110q-27 27 6 60q37 33 61 8z" />
    <glyph glyph-name="Oslash" unicode="&#xd8;" horiz-adv-x="671" 
d="M480 434l-252 -274q40 -54 106 -54q151 0 151 244q0 36 -5 84zM193 270l251 270q-36 55 -110 55q-46 0 -76.5 -22t-44 -61.5t-18.5 -76.5t-5 -85q0 -55 3 -80zM52 350q0 362 282 362q127 0 201 -72l64 67q22 26 61 -7q34 -32 12 -61l-82 -88q31 -83 31 -201
q0 -171 -67 -265t-220 -94q-125 0 -197 70l-62 -66q-25 -25 -62 7q-41 31 -11 62l81 86q-31 78 -31 200z" />
    <glyph glyph-name="Ugrave" unicode="&#xd9;" horiz-adv-x="635" 
d="M197 658v-418q0 -59 31.5 -95t88.5 -36t89 36t32 95v418q0 46 66 46t66 -46v-406q0 -134 -68 -198.5t-185 -64.5q-116 0 -184 64.5t-68 198.5v406q0 46 66 46t66 -46zM373 776q15 -35 -24 -40q-36 -7 -58 17l-60 67q-17 19 -13.5 36t28.5 22q10 2 40 2q40 0 55 -30z" />
    <glyph glyph-name="Uacute" unicode="&#xda;" horiz-adv-x="635" 
d="M197 658v-418q0 -59 31.5 -95t88.5 -36t89 36t32 95v418q0 46 66 46t66 -46v-406q0 -134 -68 -198.5t-185 -64.5q-116 0 -184 64.5t-68 198.5v406q0 46 66 46t66 -46zM280 776l35 74q14 30 53 30q27 0 39 -2q27 -5 30 -22t-15 -36l-59 -67q-23 -24 -58 -17q-39 5 -25 40z
" />
    <glyph glyph-name="Ucircumflex" unicode="&#xdb;" horiz-adv-x="635" 
d="M197 658v-418q0 -59 31.5 -95t88.5 -36t89 36t32 95v418q0 46 66 46t66 -46v-406q0 -134 -68 -198.5t-185 -64.5q-116 0 -184 64.5t-68 198.5v406q0 46 66 46t66 -46zM279 890h76q23 0 40 -17l57 -75q17 -17 13 -31.5t-29 -20.5q-32 -8 -55 13l-65 60l-62 -60
q-24 -21 -56 -13q-24 6 -28 20.5t11 31.5l61 75q15 17 37 17z" />
    <glyph glyph-name="Udieresis" unicode="&#xdc;" horiz-adv-x="635" 
d="M197 658v-418q0 -59 31.5 -95t88.5 -36t89 36t32 95v418q0 46 66 46t66 -46v-406q0 -134 -68 -198.5t-185 -64.5q-116 0 -184 64.5t-68 198.5v406q0 46 66 46t66 -46zM399 880q63 0 63 -60q0 -30 -14 -44.5t-49 -14.5q-59 0 -59 59q0 60 59 60zM232 880q59 0 59 -60
q0 -30 -13 -44.5t-46 -14.5q-34 0 -47 14.5t-13 44.5q0 60 60 60z" />
    <glyph glyph-name="Yacute" unicode="&#xdd;" horiz-adv-x="523" 
d="M196 333l-184 318q-14 25 -0.5 39t38.5 14q43 0 62.5 -9.5t34.5 -36.5l116 -213l115 213q15 27 37 36.5t64 9.5q24 0 34 -11.5t-3 -39.5l-181 -320v-295q0 -47 -66 -47q-67 0 -67 47v295zM224 776l35 74q14 30 53 30q27 0 39 -2q27 -5 30 -22t-15 -36l-59 -67
q-23 -24 -58 -17q-39 5 -25 40z" />
    <glyph glyph-name="Thorn" unicode="&#xde;" horiz-adv-x="601" 
d="M360 468h-188v-220h188q44 0 72 31t28 79q0 47 -28.5 78.5t-71.5 31.5zM50 32v632q0 44 61 44t61 -44v-99h192q96 0 156.5 -58.5t60.5 -148.5q0 -92 -60.5 -151.5t-156.5 -59.5h-192v-115q0 -44 -61 -44t-61 44z" />
    <glyph glyph-name="germandbls" unicode="&#xdf;" horiz-adv-x="580" 
d="M65 -9v515q0 97 55 153t161 56q82 -1 139 -48.5t55 -123.5q-1 -52 -24 -82t-69 -50q-7 -3 -9.5 -8t1.5 -10t14 -7q86 -25 129 -69.5t42 -127.5q-2 -87 -55.5 -142t-143.5 -55q-39 -1 -78 14t-57 41q-26 36 2 70q30 30 65 9q36 -20 58 -19q36 4 54.5 29t18.5 63
q0 11 -2.5 21t-5 16.5t-10.5 14t-11 11t-14.5 9.5l-14.5 7.5t-17.5 7.5t-16.5 7q-12 6 -44 18q-71 36 -66 100q1 33 41 47q3 1 15 5.5t16 6.5l13.5 6.5t13.5 8l10.5 9.5t9 12.5t5 15.5t2.5 20q-1 61 -74 61q-48 0 -65 -28t-17 -75v-505q0 -32 -15 -49t-50 -16q-61 2 -61 61z
" />
    <glyph glyph-name="agrave" unicode="&#xe0;" 
d="M357 41q-61 -52 -150 -52q-71 0 -121.5 45t-50.5 119q0 200 301 182q1 89 -79 89q-20 0 -34.5 -1t-32 -6.5t-24.5 -8.5l-33 -14q-40 -17 -64 11q-15 17 -13 42t23 38q78 47 180 47q93 0 152 -46.5t59 -144.5v-231q0 -19 4 -67q2 -25 -11 -35t-39 -11q-26 0 -41 10t-26 34
zM336 237q-21 4 -50 1t-55 -8.5t-44 -25.5t-17 -51q1 -26 20 -41t50 -15q51 0 77 41t19 99zM311 606q15 -35 -24 -40q-36 -7 -58 17l-60 67q-17 19 -13.5 36t28.5 22q10 2 40 2q40 0 55 -30z" />
    <glyph glyph-name="aacute" unicode="&#xe1;" 
d="M357 41q-61 -52 -150 -52q-71 0 -121.5 45t-50.5 119q0 200 301 182q1 89 -79 89q-20 0 -34.5 -1t-32 -6.5t-24.5 -8.5l-33 -14q-40 -17 -64 11q-15 17 -13 42t23 38q78 47 180 47q93 0 152 -46.5t59 -144.5v-231q0 -19 4 -67q2 -25 -11 -35t-39 -11q-26 0 -41 10t-26 34
zM336 237q-21 4 -50 1t-55 -8.5t-44 -25.5t-17 -51q1 -26 20 -41t50 -15q51 0 77 41t19 99zM208 606l35 74q14 30 53 30q27 0 39 -2q27 -5 30 -22t-15 -36l-59 -67q-23 -24 -58 -17q-39 5 -25 40z" />
    <glyph glyph-name="acircumflex" unicode="&#xe2;" 
d="M357 41q-61 -52 -150 -52q-71 0 -121.5 45t-50.5 119q0 200 301 182q1 89 -79 89q-20 0 -34.5 -1t-32 -6.5t-24.5 -8.5l-33 -14q-40 -17 -64 11q-15 17 -13 42t23 38q78 47 180 47q93 0 152 -46.5t59 -144.5v-231q0 -19 4 -67q2 -25 -11 -35t-39 -11q-26 0 -41 10t-26 34
zM336 237q-21 4 -50 1t-55 -8.5t-44 -25.5t-17 -51q1 -26 20 -41t50 -15q51 0 77 41t19 99zM216 710h76q23 0 40 -17l57 -75q17 -17 13 -31.5t-29 -20.5q-32 -8 -55 13l-65 60l-62 -60q-24 -21 -56 -13q-24 6 -28 20.5t11 31.5l61 75q15 17 37 17z" />
    <glyph glyph-name="atilde" unicode="&#xe3;" 
d="M357 41q-61 -52 -150 -52q-71 0 -121.5 45t-50.5 119q0 200 301 182q1 89 -79 89q-20 0 -34.5 -1t-32 -6.5t-24.5 -8.5l-33 -14q-40 -17 -64 11q-15 17 -13 42t23 38q78 47 180 47q93 0 152 -46.5t59 -144.5v-231q0 -19 4 -67q2 -25 -11 -35t-39 -11q-26 0 -41 10t-26 34
zM336 237q-21 4 -50 1t-55 -8.5t-44 -25.5t-17 -51q1 -26 20 -41t50 -15q51 0 77 41t19 99zM147 595q-20 -26 -44 -14q-12 2 -18 14.5t-4 25.5q7 36 38 61q29 24 68 24q37 0 75 -24t57 -24q28 0 42 30q8 24 41 18q32 -9 23 -36q-10 -45 -32 -67t-64 -22q-31 0 -72.5 22.5
t-67.5 22.5q-27 0 -42 -31z" />
    <glyph glyph-name="adieresis" unicode="&#xe4;" 
d="M357 41q-61 -52 -150 -52q-71 0 -121.5 45t-50.5 119q0 200 301 182q1 89 -79 89q-20 0 -34.5 -1t-32 -6.5t-24.5 -8.5l-33 -14q-40 -17 -64 11q-15 17 -13 42t23 38q78 47 180 47q93 0 152 -46.5t59 -144.5v-231q0 -19 4 -67q2 -25 -11 -35t-39 -11q-26 0 -41 10t-26 34
zM336 237q-21 4 -50 1t-55 -8.5t-44 -25.5t-17 -51q1 -26 20 -41t50 -15q51 0 77 41t19 99zM347 710q63 0 63 -60q0 -30 -14 -44.5t-49 -14.5q-59 0 -59 59q0 60 59 60zM180 710q59 0 59 -60q0 -30 -13 -44.5t-46 -14.5q-34 0 -47 14.5t-13 44.5q0 60 60 60z" />
    <glyph glyph-name="aring" unicode="&#xe5;" 
d="M357 41q-61 -52 -150 -52q-71 0 -121.5 45t-50.5 119q0 200 301 182q1 89 -79 89q-20 0 -34.5 -1t-32 -6.5t-24.5 -8.5l-33 -14q-40 -17 -64 11q-15 17 -13 42t23 38q78 47 180 47q93 0 152 -46.5t59 -144.5v-231q0 -19 4 -67q2 -25 -11 -35t-39 -11q-26 0 -41 10t-26 34
zM336 237q-21 4 -50 1t-55 -8.5t-44 -25.5t-17 -51q1 -26 20 -41t50 -15q51 0 77 41t19 99zM265 698q-16 0 -27.5 -11.5t-11.5 -27.5t11 -26.5t28 -10.5t28 10.5t11 26.5t-11.5 27.5t-27.5 11.5zM265 750q39 0 64.5 -26t25.5 -65q0 -37 -25.5 -63t-64.5 -26q-37 0 -63.5 26
t-26.5 63q0 38 26 64.5t64 26.5z" />
    <glyph glyph-name="ae" unicode="&#xe6;" horiz-adv-x="823" 
d="M337 237q-21 4 -51 2.5t-57.5 -6t-46 -24t-16.5 -51.5q1 -26 22 -43.5t52 -17.5q50 0 76.5 41t20.5 99zM575 430q-42 0 -66.5 -28.5t-28.5 -77.5h163q6 0 12.5 6t6.5 15q-4 40 -27 62.5t-60 22.5zM215 -10q-73 4 -126.5 47t-53.5 114q0 202 302 184q1 88 -81 92
q-10 0 -19.5 -1t-16 -1.5t-16 -3t-13 -3.5t-14.5 -5t-13.5 -5t-15.5 -7t-16 -7q-40 -13 -62 11q-17 21 -15.5 44t25.5 35q76 48 177 48q111 0 164 -63q19 29 60 45.5t90 16.5q100 0 158.5 -58.5t58.5 -154.5q-3 -48 -25 -67t-67 -19h-224q7 -62 29 -99.5t78 -37.5
q29 0 47 13t32 39q18 29 72 26q30 -3 39 -20t3 -35q-19 -63 -71.5 -97.5t-126.5 -32.5q-116 0 -166 76q-35 -39 -88 -59t-105 -15z" />
    <glyph glyph-name="ccedilla" unicode="&#xe7;" horiz-adv-x="509" 
d="M35 260q0 268 228 268q85 0 140.5 -40.5t66.5 -106.5q3 -31 -11.5 -44t-49.5 -13q-51 0 -59 36q-19 67 -87 67q-32 0 -53 -15t-30.5 -42t-12.5 -52t-3 -58t3.5 -58.5t13 -52.5t30.5 -41.5t52 -14.5q59 0 89 64q15 35 64 38q30 2 46.5 -11.5t9.5 -39.5q-15 -65 -60 -105
t-117 -47l-6 -15q43 0 71.5 -18.5t28.5 -59.5q3 -53 -49 -82q-30 -13 -69 -13q-50 0 -83 13q-29 15 -22 47q4 15 17 21.5t30 -0.5q20 -14 56 -14q17 1 27.5 8.5t10.5 17.5q0 26 -38 26q-14 1 -35 -1q-17 -2 -26.5 10t-2.5 29l13 32q-183 26 -183 267z" />
    <glyph glyph-name="egrave" unicode="&#xe8;" horiz-adv-x="518" 
d="M273 428q-43 0 -68.5 -28t-30.5 -76h164q19 0 18 22q-3 39 -25.5 60.5t-57.5 21.5zM468 118q-19 -63 -71.5 -97.5t-125.5 -34.5q-117 1 -176 79t-60 197q0 55 13 102t39.5 85t72.5 60t107 22q101 0 158.5 -58.5t56.5 -155.5q-1 -49 -22 -67.5t-69 -18.5h-221
q2 -59 25 -97.5t79 -37.5q30 0 48 13t32 40q15 29 73 23q30 -3 38.5 -19.5t2.5 -34.5zM305 616q15 -35 -24 -40q-36 -7 -58 17l-60 67q-17 19 -13.5 36t28.5 22q10 2 40 2q40 0 55 -30z" />
    <glyph glyph-name="eacute" unicode="&#xe9;" horiz-adv-x="518" 
d="M273 428q-43 0 -68.5 -28t-30.5 -76h164q19 0 18 22q-3 39 -25.5 60.5t-57.5 21.5zM468 118q-19 -63 -71.5 -97.5t-125.5 -34.5q-117 1 -176 79t-60 197q0 55 13 102t39.5 85t72.5 60t107 22q101 0 158.5 -58.5t56.5 -155.5q-1 -49 -22 -67.5t-69 -18.5h-221
q2 -59 25 -97.5t79 -37.5q30 0 48 13t32 40q15 29 73 23q30 -3 38.5 -19.5t2.5 -34.5zM222 616l35 74q14 30 53 30q27 0 39 -2q27 -5 30 -22t-15 -36l-59 -67q-23 -24 -58 -17q-39 5 -25 40z" />
    <glyph glyph-name="ecircumflex" unicode="&#xea;" horiz-adv-x="518" 
d="M273 428q-43 0 -68.5 -28t-30.5 -76h164q19 0 18 22q-3 39 -25.5 60.5t-57.5 21.5zM468 118q-19 -63 -71.5 -97.5t-125.5 -34.5q-117 1 -176 79t-60 197q0 55 13 102t39.5 85t72.5 60t107 22q101 0 158.5 -58.5t56.5 -155.5q-1 -49 -22 -67.5t-69 -18.5h-221
q2 -59 25 -97.5t79 -37.5q30 0 48 13t32 40q15 29 73 23q30 -3 38.5 -19.5t2.5 -34.5zM220 710h76q23 0 40 -17l57 -75q17 -17 13 -31.5t-29 -20.5q-32 -8 -55 13l-65 60l-62 -60q-24 -21 -56 -13q-24 6 -28 20.5t11 31.5l61 75q15 17 37 17z" />
    <glyph glyph-name="edieresis" unicode="&#xeb;" horiz-adv-x="518" 
d="M273 428q-43 0 -68.5 -28t-30.5 -76h164q19 0 18 22q-3 39 -25.5 60.5t-57.5 21.5zM468 118q-19 -63 -71.5 -97.5t-125.5 -34.5q-117 1 -176 79t-60 197q0 55 13 102t39.5 85t72.5 60t107 22q101 0 158.5 -58.5t56.5 -155.5q-1 -49 -22 -67.5t-69 -18.5h-221
q2 -59 25 -97.5t79 -37.5q30 0 48 13t32 40q15 29 73 23q30 -3 38.5 -19.5t2.5 -34.5zM341 710q63 0 63 -60q0 -30 -14 -44.5t-49 -14.5q-59 0 -59 59q0 60 59 60zM174 710q59 0 59 -60q0 -30 -13 -44.5t-46 -14.5q-34 0 -47 14.5t-13 44.5q0 60 60 60z" />
    <glyph glyph-name="igrave" unicode="&#xec;" horiz-adv-x="276" 
d="M205 480v-441q0 -48 -67 -48t-67 48v441q0 48 67 48t67 -48zM174 616q15 -35 -24 -40q-36 -7 -58 17l-60 67q-17 19 -13.5 36t28.5 22q10 2 40 2q40 0 55 -30z" />
    <glyph glyph-name="iacute" unicode="&#xed;" horiz-adv-x="276" 
d="M205 480v-441q0 -48 -67 -48t-67 48v441q0 48 67 48t67 -48zM101 616l35 74q14 30 53 30q27 0 39 -2q27 -5 30 -22t-15 -36l-59 -67q-23 -24 -58 -17q-39 5 -25 40z" />
    <glyph glyph-name="icircumflex" unicode="&#xee;" horiz-adv-x="276" 
d="M205 480v-441q0 -48 -67 -48t-67 48v441q0 48 67 48t67 -48zM100 720h76q23 0 40 -17l57 -75q17 -17 13 -31.5t-29 -20.5q-32 -8 -55 13l-65 60l-62 -60q-24 -21 -56 -13q-24 6 -28 20.5t11 31.5l61 75q15 17 37 17z" />
    <glyph glyph-name="idieresis" unicode="&#xef;" horiz-adv-x="276" 
d="M205 480v-441q0 -48 -67 -48t-67 48v441q0 48 67 48t67 -48zM220 700q63 0 63 -60q0 -30 -14 -44.5t-49 -14.5q-59 0 -59 59q0 60 59 60zM53 700q59 0 59 -60q0 -30 -13 -44.5t-46 -14.5q-34 0 -47 14.5t-13 44.5q0 60 60 60z" />
    <glyph glyph-name="eth" unicode="&#xf0;" horiz-adv-x="546" 
d="M368 241q0 65 -23 111.5t-77 46.5q-26 0 -45.5 -10t-29.5 -24.5t-16 -37.5t-7.5 -41.5t-1.5 -44.5q0 -156 100 -156t100 156zM35 241q0 118 54.5 185.5t167.5 67.5q49 0 99 -26q-20 49 -70 104l-97 -51q-26 -8 -41 23q-14 36 7 46l65 35q-29 17 -49 24q-16 10 -14.5 26.5
t18.5 31.5q32 23 69 11q55 -18 88 -40l66 29q24 12 40 -20q18 -35 -8 -47l-34 -15q113 -133 104 -351q-3 -51 -9.5 -88.5t-22 -76t-40 -63t-65 -40t-95.5 -15.5q-114 0 -173.5 68t-59.5 182z" />
    <glyph glyph-name="ntilde" unicode="&#xf1;" horiz-adv-x="563" 
d="M189 480l2 -12q54 67 148 67q169 0 169 -179v-317q0 -48 -67 -48t-67 48v288q0 36 -14.5 62t-50.5 26q-58 0 -84 -39.5t-26 -99.5v-237q0 -48 -67 -48t-67 48v442q0 47 59 47q30 0 45.5 -10t19.5 -38zM183 595q-20 -26 -44 -14q-12 2 -18 14.5t-4 25.5q7 36 38 61
q29 24 68 24q37 0 75 -24t57 -24q28 0 42 30q8 24 41 18q32 -9 23 -36q-10 -45 -32 -67t-64 -22q-31 0 -72.5 22.5t-67.5 22.5q-27 0 -42 -31z" />
    <glyph glyph-name="ograve" unicode="&#xf2;" horiz-adv-x="528" 
d="M35 259q0 269 229 269t229 -269t-229 -269t-229 269zM364 259q0 33 -3.5 58t-12.5 52t-30.5 41.5t-53.5 14.5t-53 -14.5t-30.5 -41.5t-12.5 -52t-3 -58q0 -166 99 -166q100 0 100 166zM300 606q15 -35 -24 -40q-36 -7 -58 17l-60 67q-17 19 -13.5 36t28.5 22q10 2 40 2
q40 0 55 -30z" />
    <glyph glyph-name="oacute" unicode="&#xf3;" horiz-adv-x="528" 
d="M35 259q0 269 229 269t229 -269t-229 -269t-229 269zM364 259q0 33 -3.5 58t-12.5 52t-30.5 41.5t-53.5 14.5t-53 -14.5t-30.5 -41.5t-12.5 -52t-3 -58q0 -166 99 -166q100 0 100 166zM227 606l35 74q14 30 53 30q27 0 39 -2q27 -5 30 -22t-15 -36l-59 -67
q-23 -24 -58 -17q-39 5 -25 40z" />
    <glyph glyph-name="ocircumflex" unicode="&#xf4;" horiz-adv-x="528" 
d="M35 259q0 269 229 269t229 -269t-229 -269t-229 269zM364 259q0 33 -3.5 58t-12.5 52t-30.5 41.5t-53.5 14.5t-53 -14.5t-30.5 -41.5t-12.5 -52t-3 -58q0 -166 99 -166q100 0 100 166zM225 710h76q23 0 40 -17l57 -75q17 -17 13 -31.5t-29 -20.5q-32 -8 -55 13l-65 60
l-62 -60q-24 -21 -56 -13q-24 6 -28 20.5t11 31.5l61 75q15 17 37 17z" />
    <glyph glyph-name="otilde" unicode="&#xf5;" horiz-adv-x="528" 
d="M35 259q0 269 229 269t229 -269t-229 -269t-229 269zM364 259q0 33 -3.5 58t-12.5 52t-30.5 41.5t-53.5 14.5t-53 -14.5t-30.5 -41.5t-12.5 -52t-3 -58q0 -166 99 -166q100 0 100 166zM146 595q-20 -26 -44 -14q-12 2 -18 14.5t-4 25.5q7 36 38 61q29 24 68 24
q38 0 75 -24t57 -24q28 0 42 30q8 24 41 18q32 -9 23 -36q-10 -45 -32 -67t-64 -22q-31 0 -72.5 22.5t-67.5 22.5q-27 0 -42 -31z" />
    <glyph glyph-name="odieresis" unicode="&#xf6;" horiz-adv-x="528" 
d="M35 259q0 269 229 269t229 -269t-229 -269t-229 269zM364 259q0 33 -3.5 58t-12.5 52t-30.5 41.5t-53.5 14.5t-53 -14.5t-30.5 -41.5t-12.5 -52t-3 -58q0 -166 99 -166q100 0 100 166zM346 710q63 0 63 -60q0 -30 -14 -44.5t-49 -14.5q-59 0 -59 59q0 60 59 60zM179 710
q59 0 59 -60q0 -30 -13 -44.5t-46 -14.5q-34 0 -47 14.5t-13 44.5q0 60 60 60z" />
    <glyph glyph-name="divide" unicode="&#xf7;" horiz-adv-x="514" 
d="M258 239q59 0 59 -59q0 -62 -59 -62t-59 62q0 59 59 59zM258 540q59 0 59 -58q0 -61 -59 -61t-59 61q0 29 13 43.5t46 14.5zM75 381h364q40 0 40 -50q0 -51 -40 -51h-364q-40 0 -40 51q0 50 40 50z" />
    <glyph glyph-name="oslash" unicode="&#xf8;" horiz-adv-x="545" 
d="M175 216l156 190q-26 21 -58 21q-101 0 -101 -167q0 -27 3 -44zM371 304l-155 -192q24 -19 57 -19q99 0 99 167q0 26 -1 44zM45 260q0 268 228 268q81 0 129 -33l23 26q14 15 31.5 13.5t32.5 -14.5q37 -29 11 -62l-30 -37q31 -62 31 -161q0 -269 -228 -269q-80 0 -131 31
l-22 -24q-15 -15 -31.5 -14t-31.5 14q-16 11 -20.5 27.5t8.5 31.5l30 40q-30 60 -30 163z" />
    <glyph glyph-name="ugrave" unicode="&#xf9;" horiz-adv-x="557" 
d="M369 39l-3 11q-56 -65 -142 -65q-169 0 -169 179v316q0 48 67 48t67 -48v-287q0 -88 59 -88q58 0 84 38t26 97v240q0 48 67 48t67 -48v-439q0 -50 -61 -50q-51 0 -62 48zM324 606q15 -35 -24 -40q-36 -7 -58 17l-60 67q-17 19 -13.5 36t28.5 22q10 2 40 2q40 0 55 -30z
" />
    <glyph glyph-name="uacute" unicode="&#xfa;" horiz-adv-x="557" 
d="M369 39l-3 11q-56 -65 -142 -65q-169 0 -169 179v316q0 48 67 48t67 -48v-287q0 -88 59 -88q58 0 84 38t26 97v240q0 48 67 48t67 -48v-439q0 -50 -61 -50q-51 0 -62 48zM241 606l35 74q14 30 53 30q27 0 39 -2q27 -5 30 -22t-15 -36l-59 -67q-23 -24 -58 -17
q-39 5 -25 40z" />
    <glyph glyph-name="ucircumflex" unicode="&#xfb;" horiz-adv-x="557" 
d="M369 39l-3 11q-56 -65 -142 -65q-169 0 -169 179v316q0 48 67 48t67 -48v-287q0 -88 59 -88q58 0 84 38t26 97v240q0 48 67 48t67 -48v-439q0 -50 -61 -50q-51 0 -62 48zM240 710h76q23 0 40 -17l57 -75q17 -17 13 -31.5t-29 -20.5q-32 -8 -55 13l-65 60l-62 -60
q-24 -21 -56 -13q-24 6 -28 20.5t11 31.5l61 75q15 17 37 17z" />
    <glyph glyph-name="udieresis" unicode="&#xfc;" horiz-adv-x="557" 
d="M369 39l-3 11q-56 -65 -142 -65q-169 0 -169 179v316q0 48 67 48t67 -48v-287q0 -88 59 -88q58 0 84 38t26 97v240q0 48 67 48t67 -48v-439q0 -50 -61 -50q-51 0 -62 48zM360 710q63 0 63 -60q0 -30 -14 -44.5t-49 -14.5q-59 0 -59 59q0 60 59 60zM193 710q59 0 59 -60
q0 -30 -13 -44.5t-46 -14.5q-34 0 -47 14.5t-13 44.5q0 60 60 60z" />
    <glyph glyph-name="yacute" unicode="&#xfd;" horiz-adv-x="480" 
d="M458 454l-183 -520q-45 -129 -192 -105q-41 7 -41 62q0 30 13 45t42 11q23 -3 42.5 9t27.5 34l15 44l-160 417q-24 66 43 72q68 8 81 -28l99 -275l94 275q12 36 80 28q33 -3 42 -18.5t-3 -50.5zM203 606l35 74q14 30 53 30q27 0 39 -2q27 -5 30 -22t-15 -36l-59 -67
q-23 -24 -58 -17q-39 5 -25 40z" />
    <glyph glyph-name="thorn" unicode="&#xfe;" horiz-adv-x="567" 
d="M199 285v-44q0 -56 24.5 -102.5t73.5 -46.5q92 0 92 168q0 169 -92 169q-47 0 -72.5 -44.5t-25.5 -99.5zM65 -138v794q0 51 67 51t67 -51v-162q43 37 110 37q223 0 223 -271q0 -125 -55.5 -197.5t-167.5 -72.5q-74 0 -110 35v-163q0 -50 -67 -50t-67 50z" />
    <glyph glyph-name="ydieresis" unicode="&#xff;" horiz-adv-x="480" 
d="M458 454l-183 -520q-45 -129 -192 -105q-41 7 -41 62q0 30 13 45t42 11q23 -3 42.5 9t27.5 34l15 44l-160 417q-24 66 43 72q68 8 81 -28l99 -275l94 275q12 36 80 28q33 -3 42 -18.5t-3 -50.5zM322 700q63 0 63 -60q0 -30 -14 -44.5t-49 -14.5q-59 0 -59 59q0 60 59 60z
M155 700q59 0 59 -60q0 -30 -13 -44.5t-46 -14.5q-34 0 -47 14.5t-13 44.5q0 60 60 60z" />
    <glyph glyph-name="OE" unicode="&#x152;" horiz-adv-x="926" 
d="M468 350q0 38 -3 68.5t-12 65t-24.5 57.5t-43.5 38.5t-66 15.5q-37 0 -65 -15.5t-43.5 -38.5t-24.5 -57.5t-12 -65t-3 -68.5q0 -244 148 -244q149 0 149 244zM627 580q-18 0 -18 -17v-141h204q41 0 41 -61q0 -58 -41 -58h-204v-165q0 -16 18 -16h224q40 0 40 -62
q0 -60 -40 -60h-276q-38 0 -62 11.5t-32 44.5q-73 -66 -172 -66q-143 0 -208.5 95.5t-65.5 264.5q0 361 279 361q100 0 167 -65q14 54 94 54h276q40 0 40 -59q0 -61 -40 -61h-224z" />
    <glyph glyph-name="oe" unicode="&#x153;" horiz-adv-x="848" 
d="M603 428q-42 0 -67.5 -28t-30.5 -76h165q7 0 12 6t4 17q-2 39 -24.5 60t-58.5 21zM365 261q0 164 -101 164q-32 0 -53 -14.5t-30.5 -41t-12.5 -51t-3 -57.5t3.5 -59t13 -53t30.5 -41.5t52 -14.5q101 0 101 168zM799 118q-19 -64 -71.5 -98t-126.5 -33q-113 0 -175 81
q-21 -35 -63 -56.5t-99 -21.5q-229 0 -229 271q0 267 229 267q111 0 161 -73q62 77 173 77q102 0 159 -58.5t55 -156.5q0 -49 -21 -68t-68 -19h-222q2 -135 103 -135q31 0 48.5 13t32.5 41q14 28 73 22q30 -3 38.5 -18.5t2.5 -34.5z" />
    <glyph glyph-name="Scaron" unicode="&#x160;" horiz-adv-x="548" 
d="M143 196q15 -44 47 -69t76 -25q50 0 82.5 24.5t32.5 74.5q0 20 -9.5 36t-19.5 25t-31.5 18t-31.5 12t-33 9q-48 13 -82.5 26.5t-71 37.5t-56 61.5t-19.5 87.5q0 91 67.5 144.5t158.5 53.5q204 0 249 -167q6 -23 -8.5 -39.5t-42.5 -19.5q-59 -7 -74 31q-18 42 -44.5 61
t-75.5 19q-40 0 -68.5 -20t-28.5 -62q0 -18 9.5 -33t19.5 -23t30 -16.5t29 -11t30 -7.5q40 -10 68 -19.5t62 -27.5t55 -39t35.5 -55t14.5 -76q0 -103 -67 -162t-178 -59q-91 0 -161.5 47t-89.5 137q-10 51 43 63q27 6 50.5 -2.5t32.5 -34.5zM215 770l-72 72q-11 12 -8.5 23
t16.5 18q10 8 27.5 7t31.5 -11l62 -46l67 46q12 10 30 11t30 -7q28 -16 8 -41l-73 -72q-23 -21 -62 -21q-36 0 -57 21z" />
    <glyph glyph-name="scaron" unicode="&#x161;" horiz-adv-x="475" 
d="M83 182q53 8 71 -31q29 -57 95 -57q27 0 49.5 14.5t23.5 40.5q0 27 -24.5 39.5t-86.5 25.5q-37 8 -64 18t-54 27.5t-41 46t-14 66.5q0 74 59 117t137 43q150 0 189 -112q9 -26 -1 -39.5t-39 -17.5q-57 -7 -80 25q-27 40 -70 40q-70 0 -70 -45q0 -41 99 -58
q43 -8 73 -18.5t58 -28.5t42.5 -47t14.5 -69q0 -83 -58.5 -129t-141.5 -46q-159 0 -208 121q-26 62 41 74zM188 590l-72 72q-11 12 -8.5 23t16.5 18q10 8 27.5 7t31.5 -11l62 -46l67 46q12 10 30 11t30 -7q28 -16 8 -41l-73 -72q-23 -21 -62 -21q-36 0 -57 21z" />
    <glyph glyph-name="Ydieresis" unicode="&#x178;" horiz-adv-x="523" 
d="M196 333l-184 318q-14 25 -0.5 39t38.5 14q43 0 62.5 -9.5t34.5 -36.5l116 -213l115 213q15 27 37 36.5t64 9.5q24 0 34 -11.5t-3 -39.5l-181 -320v-295q0 -47 -66 -47q-67 0 -67 47v295zM343 870q63 0 63 -60q0 -30 -14 -44.5t-49 -14.5q-59 0 -59 59q0 60 59 60z
M176 870q59 0 59 -60q0 -30 -13 -44.5t-46 -14.5q-34 0 -47 14.5t-13 44.5q0 60 60 60z" />
    <glyph glyph-name="Zcaron" unicode="&#x17d;" horiz-adv-x="502" 
d="M424 0h-362q-47 0 -47 59q0 34 15 59l238 395q25 42 43 67h-252q-42 0 -42 60t42 60h361q47 0 47 -59q0 -32 -15 -59l-235 -397q-23 -38 -45 -64h252q42 0 42 -61q0 -60 -42 -60zM192 770l-72 72q-11 12 -8.5 23t16.5 18q10 8 27.5 7t31.5 -11l62 -46l67 46q12 10 30 11
t30 -7q28 -16 8 -41l-73 -72q-23 -21 -62 -21q-36 0 -57 21z" />
    <glyph glyph-name="zcaron" unicode="&#x17e;" horiz-adv-x="415" 
d="M73 518h274q48 0 48 -54q0 -33 -18 -59l-160 -240q-25 -37 -49 -57h184q48 0 48 -54t-48 -54h-287q-50 0 -50 54q0 35 14 57l164 245q24 36 43 54h-163q-48 0 -48 54t48 54zM148 590l-72 72q-11 12 -8.5 23t16.5 18q10 8 27.5 7t31.5 -11l62 -46l67 46q12 10 30 11t30 -7
q28 -16 8 -41l-73 -72q-23 -21 -62 -21q-36 0 -57 21z" />
    <glyph glyph-name="circumflex" unicode="&#x2c6;" horiz-adv-x="367" 
d="M145 700h76q23 0 40 -17l57 -75q17 -17 13 -31.5t-29 -20.5q-32 -8 -55 13l-65 60l-62 -60q-24 -21 -56 -13q-24 6 -28 20.5t11 31.5l61 75q15 17 37 17z" />
    <glyph glyph-name="caron" unicode="&#x2c7;" horiz-adv-x="341" 
d="M111 580l-72 72q-11 12 -8.5 23t16.5 18q10 8 27.5 7t31.5 -11l62 -46l67 46q12 10 30 11t30 -7q28 -16 8 -41l-73 -72q-23 -21 -62 -21q-36 0 -57 21z" />
    <glyph glyph-name="ring" unicode="&#x2da;" horiz-adv-x="240" 
d="M120 648q-16 0 -27.5 -11.5t-11.5 -27.5t11 -26.5t28 -10.5t28 10.5t11 26.5t-11.5 27.5t-27.5 11.5zM120 700q39 0 64.5 -26t25.5 -65q0 -37 -25.5 -63t-64.5 -26q-37 0 -63.5 26t-26.5 63q0 38 26 64.5t64 26.5z" />
    <glyph glyph-name="tilde" unicode="&#x2dc;" horiz-adv-x="407" 
d="M97 585q-20 -26 -44 -14q-12 2 -18 14.5t-4 25.5q7 36 38 61q29 24 68 24q37 0 75 -24t57 -24q28 0 42 30q8 24 41 18q32 -9 23 -36q-10 -45 -32 -67t-64 -22q-31 0 -72.5 22.5t-67.5 22.5q-27 0 -42 -31z" />
    <glyph glyph-name="afii10023" unicode="&#x401;" horiz-adv-x="515" 
d="M359 861q32 0 44.5 -14t12.5 -41q0 -28 -12 -42.5t-45 -14.5t-45 14.5t-12 42.5t12 41.5t45 13.5zM194 861q33 0 45 -13.5t12 -41.5t-12 -42.5t-45 -14.5t-45 14.5t-12 42.5t12 41.5t45 13.5zM215 580q-17 0 -17 -17v-141h203q42 0 42 -60t-42 -60h-203v-165
q0 -17 17 -17h223q42 0 42 -60t-42 -60h-275q-45 0 -71.5 18.5t-26.5 69.5v524q0 51 26.5 69.5t71.5 18.5h275q42 0 42 -60t-42 -60h-223z" />
    <glyph glyph-name="afii10051" unicode="&#x402;" horiz-adv-x="740" 
d="M430 580h-129v-154q77 39 156 39q108 2 180.5 -61.5t71.5 -184.5q-2 -103 -69.5 -166.5t-161.5 -63.5q-83 0 -129 33q-34 24 -15 65q8 18 24.5 24t42.5 -5q28 -15 67 -11q58 2 89 37t31 93q0 60 -34.5 95.5t-93.5 37.5q-86 3 -159 -38v-283q0 -45 -65 -45q-67 0 -67 45
v543h-127q-42 0 -42 61q0 59 42 59h388q41 0 41 -59q0 -61 -41 -61z" />
    <glyph glyph-name="afii10052" unicode="&#x403;" horiz-adv-x="454" 
d="M209 786l32 78q15 35 56 33q20 0 48 -4q25 -6 28.5 -22.5t-13.5 -35.5l-63 -70q-26 -27 -64 -17q-37 7 -24 38zM214 580q-16 0 -16 -17v-526q0 -45 -66 -45q-67 0 -67 45v575q0 53 25.5 70.5t72.5 17.5h234q42 0 42 -59q0 -61 -42 -61h-183z" />
    <glyph glyph-name="afii10053" unicode="&#x404;" horiz-adv-x="610" 
d="M35 350q0 84 13 147t44.5 113t88 75.5t138.5 25.5q121 0 187.5 -61t77.5 -164q3 -23 -17 -36.5t-51 -11.5q-34 1 -51 10t-23 34q-13 59 -39.5 85.5t-83.5 26.5q-124 0 -139 -170h183q42 0 42 -60t-42 -60h-185q2 -41 9 -72.5t21.5 -61t42.5 -46t68 -17.5q99 -3 120 104
q6 27 24.5 38.5t53.5 12.5q37 0 54 -14t13 -45q-11 -98 -77.5 -156t-187.5 -58q-82 0 -139 26t-88 76t-44 112.5t-13 146.5z" />
    <glyph glyph-name="afii10054" unicode="&#x405;" horiz-adv-x="548" 
d="M143 196q15 -44 47 -69t76 -25q50 0 82.5 24.5t32.5 74.5q0 20 -9.5 36t-19.5 25t-31.5 18t-31.5 12t-33 9q-48 13 -82.5 26.5t-71 37.5t-56 61.5t-19.5 87.5q0 91 67.5 144.5t158.5 53.5q204 0 249 -167q6 -23 -8.5 -39.5t-42.5 -19.5q-59 -7 -74 31q-18 42 -44.5 61
t-75.5 19q-40 0 -68.5 -20t-28.5 -62q0 -18 9.5 -33t19.5 -23t30 -16.5t29 -11t30 -7.5q40 -10 68 -19.5t62 -27.5t55 -39t35.5 -55t14.5 -76q0 -103 -67 -162t-178 -59q-91 0 -161.5 47t-89.5 137q-10 51 43 63q27 6 50.5 -2.5t32.5 -34.5z" />
    <glyph glyph-name="afii10055" unicode="&#x406;" horiz-adv-x="263" 
d="M198 658v-620q0 -47 -67 -47q-66 0 -66 47v620q0 46 66 46q67 0 67 -46z" />
    <glyph glyph-name="afii10056" unicode="&#x407;" horiz-adv-x="288" 
d="M210 657v-619q0 -47 -66 -47t-66 47v619q0 47 66 47t66 -47zM62 861q32 0 44.5 -14t12.5 -41q0 -28 -12 -42.5t-45 -14.5t-45 14.5t-12 42.5t12 41.5t45 13.5zM226 861q33 0 45 -13.5t12 -41.5t-12 -42.5t-45 -14.5t-45 14.5t-12 42.5t12 41.5t45 13.5z" />
    <glyph glyph-name="afii10057" unicode="&#x408;" horiz-adv-x="424" 
d="M359 658v-478q0 -52 -19.5 -91.5t-52 -61.5t-74 -32t-85.5 -7t-86 17q-46 16 -34 78q5 23 21.5 35.5t37.5 5.5q42 -15 82 -13q77 1 77 92v455q0 46 66 46q67 0 67 -46z" />
    <glyph glyph-name="afii10058" unicode="&#x409;" horiz-adv-x="921" 
d="M666 315h-128v-177q0 -16 18 -16h110q42 0 65 25.5t23 69.5q0 42 -24 70t-64 28zM265 580q-16 0 -16 -17q-2 -27 -7 -112t-11.5 -167t-16.5 -143q-12 -77 -44 -112.5t-95 -34.5q-63 0 -64 55q-4 53 35 57q41 7 48 70q9 76 16.5 241.5t10.5 190.5q6 51 34.5 71.5
t77.5 20.5h208q45 0 71 -18t26 -70v-176h142q93 0 152 -61.5t59 -157.5q0 -95 -59.5 -156t-151.5 -61h-176q-45 0 -71.5 18.5t-26.5 70.5v474q0 17 -17 17h-124z" />
    <glyph glyph-name="afii10059" unicode="&#x40a;" horiz-adv-x="941" 
d="M685 312h-129v-174q0 -16 17 -16h112q41 0 63.5 26t22.5 69q0 42 -23.5 68.5t-62.5 26.5zM556 431h142q92 0 152.5 -59.5t60.5 -154.5t-61 -156t-152 -61h-177q-45 0 -71.5 18.5t-26.5 70.5v223h-225v-275q0 -45 -66 -45q-67 0 -67 45v621q0 47 67 47q66 0 66 -47v-227
h225v227q0 47 67 47q66 0 66 -47v-227z" />
    <glyph glyph-name="afii10060" unicode="&#x40b;" horiz-adv-x="746" 
d="M574 235q0 124 -113 128q-78 3 -159 -43v-283q0 -45 -65 -45q-67 0 -67 45v543h-128q-42 0 -42 61q0 59 42 59h387q43 0 43 -59q0 -61 -43 -61h-127v-154q73 39 156 39q116 3 182 -59t66 -174v-195q0 -45 -66 -45t-66 45v198z" />
    <glyph glyph-name="afii10061" unicode="&#x40c;" horiz-adv-x="567" 
d="M237 786l34 78q15 35 55 33q24 0 46 -4q27 -6 30.5 -22.5t-15.5 -35.5l-62 -70q-23 -28 -62 -17q-39 7 -26 38zM197 658v-224q76 0 115 68q11 20 38 77t38 74q21 31 36.5 41.5t52.5 10.5q40 0 54 -14.5t-4 -42.5q-11 -17 -39 -74.5t-48 -92.5l-23.5 -37t-25.5 -30
t-36 -25q65 -19 104 -109q15 -37 41.5 -119.5t38.5 -106.5q16 -34 -0.5 -47t-60.5 -13q-31 0 -46 8.5t-25 29.5q-18 38 -38.5 111t-29.5 98q-32 92 -142 79v-283q0 -45 -66 -45t-66 45v621q0 47 66 47t66 -47z" />
    <glyph glyph-name="afii10062" unicode="&#x40e;" horiz-adv-x="518" 
d="M504 657l-212 -550q-43 -114 -124 -114q-34 0 -52 13t-19 50q-1 45 38 51q15 2 22.5 9t16.5 30l39 99l-197 404q-13 25 2.5 39t44.5 16q40 1 57 -9t30 -38l122 -256l99 256q11 28 26.5 37.5t54.5 9.5q28 -1 44.5 -11.5t7.5 -35.5zM272 732q-54 0 -93.5 23t-52.5 52
q-17 39 10 56q30 19 51 -2q36 -37 85 -37q50 0 86 37q10 10 24 11t27 -8q27 -18 10 -57q-14 -29 -53.5 -52t-93.5 -23z" />
    <glyph glyph-name="afii10145" unicode="&#x40f;" horiz-adv-x="613" 
d="M449 0h-88v-144q0 -38 -54 -38q-57 0 -57 38v144h-87q-45 0 -71.5 18.5t-26.5 70.5v575q0 46 66 46t66 -46v-526q0 -16 16 -16h186q16 0 16 16v526q0 46 67 46q66 0 66 -46v-575q0 -52 -26.5 -70.5t-72.5 -18.5z" />
    <glyph glyph-name="afii10017" unicode="&#x410;" horiz-adv-x="604" 
d="M373 277l-48 146q-16 49 -23 96q-7 -47 -23 -96l-48 -146h142zM192 160l-39 -120q-10 -29 -28 -38t-47 -9q-20 0 -34 3t-23.5 14t-2.5 30l207 620q17 50 77 50t77 -50l207 -620q9 -27 -9.5 -37t-50.5 -10q-29 0 -47 9t-28 38l-39 120h-220z" />
    <glyph glyph-name="afii10018" unicode="&#x411;" horiz-adv-x="563" 
d="M215 580q-17 0 -17 -17v-141h135q92 0 148.5 -57.5t56.5 -153.5q0 -95 -57 -153t-148 -58h-170q-45 0 -71.5 18.5t-26.5 69.5v524q0 51 26.5 69.5t71.5 18.5h288q42 0 42 -60t-42 -60h-236zM319 302h-121v-165q0 -17 17 -17h104q81 0 81 91q0 43 -20.5 67t-60.5 24z" />
    <glyph glyph-name="afii10019" unicode="&#x412;" horiz-adv-x="600" 
d="M198 302v-165q0 -17 17 -17h130q81 0 81 91t-93 91h-135zM468 373q97 -47 97 -162q0 -95 -57.5 -153t-148.5 -58h-196q-45 0 -71.5 18.5t-26.5 69.5v524q0 51 26.5 69.5t71.5 18.5h170q94 0 150 -49t56 -142q0 -44 -19.5 -80t-51.5 -56zM319 422q40 0 60.5 21t20.5 58
q0 79 -81 79h-104q-17 0 -17 -17v-141h121z" />
    <glyph glyph-name="afii10020" unicode="&#x413;" horiz-adv-x="443" 
d="M214 580q-17 0 -17 -17v-525q0 -47 -66 -47t-66 47v574q0 51 26.5 69.5t71.5 18.5h233q42 0 42 -60t-42 -60h-182z" />
    <glyph glyph-name="afii10021" unicode="&#x414;" horiz-adv-x="644" 
d="M206 119h214v443q0 17 -16 17h-135q-16 0 -18 -17q-4 -126 -13 -282q-9 -120 -32 -161zM488 0h-346q-18 0 -18 -18v-87q0 -46 -62 -46t-62 46v137q0 57 48 82q26 14 38 63t20 137q3 44 13 298q3 52 29.5 70t70.5 18h234q46 0 72 -18t26 -70v-493q36 -1 57 -19.5t21 -67.5
v-137q0 -46 -63 -46q-62 0 -62 46v87q0 18 -16 18z" />
    <glyph glyph-name="afii10022" unicode="&#x415;" horiz-adv-x="515" 
d="M215 580q-17 0 -17 -17v-141h203q42 0 42 -60t-42 -60h-203v-165q0 -17 17 -17h223q42 0 42 -60t-42 -60h-275q-45 0 -71.5 18.5t-26.5 69.5v524q0 51 26.5 69.5t71.5 18.5h275q42 0 42 -60t-42 -60h-223z" />
    <glyph glyph-name="afii10024" unicode="&#x416;" horiz-adv-x="781" 
d="M456 657v-220q26 4 44.5 18t27.5 28t25 45q10 20 29 65.5t27 59.5q20 30 35.5 40.5t52.5 10.5q40 0 55.5 -16.5t-2.5 -46.5q-16 -26 -46.5 -88.5t-46.5 -89.5l-21.5 -33t-21.5 -23.5t-32 -20.5q67 -30 101 -112q16 -39 33.5 -114t29.5 -110q11 -31 -3 -43.5t-51 -13.5
t-52 9.5t-27 41.5q-7 17 -24.5 95t-30.5 110q-27 67 -102 71v-282q0 -47 -65 -47t-65 47v282q-75 -3 -102 -71q-13 -32 -31 -110t-25 -95q-12 -31 -27 -41.5t-52 -9.5q-36 1 -50.5 13.5t-3.5 43.5q13 36 31 110.5t34 113.5q34 83 100 112q-40 18 -75 77q-18 28 -48.5 90.5
t-46.5 87.5q-18 30 -2.5 46.5t56.5 16.5q37 0 53 -10.5t35 -40.5q8 -14 27 -59.5t29 -65.5q16 -31 25 -45t27.5 -28t45.5 -18v220q0 47 65 47t65 -47z" />
    <glyph glyph-name="afii10025" unicode="&#x417;" horiz-adv-x="553" 
d="M151 203q25 -97 119 -97q47 0 79 27t32 68q0 61 -35.5 82t-103.5 21q-42 0 -42 61q0 56 45 60q118 4 118 93q0 38 -25.5 58.5t-69.5 20.5q-51 0 -75.5 -19.5t-30.5 -61.5q-4 -21 -26 -30t-49 -5q-27 3 -42.5 19t-12.5 37q11 85 71 131t164 46q95 0 163.5 -48t69.5 -144
q0 -101 -93 -149q54 -21 83 -68t27 -105q-3 -102 -69 -157t-182 -55q-93 0 -163.5 51.5t-76.5 141.5q-1 22 13 36t38 18q63 12 74 -32z" />
    <glyph glyph-name="afii10026" unicode="&#x418;" horiz-adv-x="628" 
d="M434 38v414q-14 -34 -38 -79l-200 -347q-20 -35 -63 -35q-68 0 -68 47v619q0 47 64 47q66 0 66 -47v-420q9 25 38 78l201 350q22 39 68 39q61 0 61 -47v-619q0 -47 -63 -47q-66 0 -66 47z" />
    <glyph glyph-name="afii10027" unicode="&#x419;" horiz-adv-x="628" 
d="M317 738q-54 0 -93.5 23t-52.5 52q-17 39 10 56q30 19 51 -2q36 -37 85 -37q50 0 86 37q10 10 24 11t27 -8q27 -18 10 -57q-14 -29 -53.5 -52t-93.5 -23zM434 38v414q-15 -39 -39 -79l-199 -347q-20 -35 -64 -35q-67 0 -67 47v619q0 47 64 47q65 0 65 -47v-420
q14 35 39 78l201 350q22 39 67 39q62 0 62 -47v-619q0 -47 -63 -47q-66 0 -66 47z" />
    <glyph glyph-name="afii10028" unicode="&#x41a;" horiz-adv-x="566" 
d="M198 657v-222q76 0 114 66q12 21 38.5 78t37.5 74q21 31 36.5 41t52.5 10q41 0 55 -14.5t-4 -43.5q-12 -18 -41 -76t-48 -90q-43 -72 -83 -91q62 -19 103 -110q17 -39 42 -120.5t37 -105.5q30 -60 -59 -60q-31 0 -46.5 9t-25.5 31q-19 39 -40 114.5t-28 94.5
q-31 87 -141 79v-283q0 -47 -67 -47q-66 0 -66 47v619q0 47 66 47q67 0 67 -47z" />
    <glyph glyph-name="afii10029" unicode="&#x41b;" horiz-adv-x="603" 
d="M265 580q-15 0 -18 -17q-2 -24 -6.5 -112t-11 -169t-15.5 -142q-12 -76 -44.5 -112t-94.5 -35q-61 0 -64 55q-2 52 34 59q41 6 47 69q10 77 18 242.5t11 188.5q12 93 112 93h207q46 0 72 -18t26 -69v-576q0 -46 -66 -46t-66 46v526q0 17 -17 17h-124z" />
    <glyph glyph-name="afii10030" unicode="&#x41c;" horiz-adv-x="703" 
d="M576 705q62 0 62 -48v-619q0 -47 -64 -47q-65 0 -65 47v405q-6 -18 -37 -86l-77 -152q-12 -23 -43 -23q-32 0 -44 23l-76 152q-27 54 -38 86v-405q0 -47 -65 -47q-64 0 -64 47v619q0 48 63 48q38 0 56 -27q8 -11 50 -91l80 -154l38 -74q151 294 167 319q18 27 57 27z" />
    <glyph glyph-name="afii10031" unicode="&#x41d;" horiz-adv-x="620" 
d="M555 657v-619q0 -47 -67 -47q-66 0 -66 47v260h-225v-260q0 -47 -66 -47t-66 47v619q0 47 66 47t66 -47v-239h225v239q0 47 66 47q67 0 67 -47z" />
    <glyph glyph-name="afii10032" unicode="&#x41e;" horiz-adv-x="638" 
d="M35 350q0 361 284 361t284 -361t-284 -361t-284 361zM467 350q0 244 -148 244q-47 0 -78 -21.5t-45.5 -60.5t-19.5 -76.5t-5 -85.5q0 -243 148 -243t148 243z" />
    <glyph glyph-name="afii10033" unicode="&#x41f;" horiz-adv-x="613" 
d="M450 700q45 0 71.5 -18.5t26.5 -69.5v-574q0 -47 -66 -47q-67 0 -67 47v525q0 17 -16 17h-185q-17 0 -17 -17v-525q0 -47 -66 -47t-66 47v574q0 51 26.5 69.5t71.5 18.5h287z" />
    <glyph glyph-name="afii10034" unicode="&#x420;" horiz-adv-x="576" 
d="M198 264v-226q0 -47 -67 -47q-66 0 -66 47v574q0 51 26.5 69.5t71.5 18.5h177q91 0 151 -61t60 -156q0 -96 -59.5 -157.5t-151.5 -61.5h-142zM326 385q40 0 63 28t23 70q0 43 -22.5 70t-63.5 27h-111q-17 0 -17 -17v-178h128z" />
    <glyph glyph-name="afii10035" unicode="&#x421;" horiz-adv-x="596" 
d="M35 350q0 361 285 361q115 0 176 -61t71 -162q2 -22 -17 -35t-47 -13q-61 -2 -71 43q-12 58 -37.5 84.5t-80.5 26.5q-45 0 -75 -21.5t-43.5 -60.5t-18.5 -76.5t-5 -85.5q0 -47 5 -84.5t19 -76.5t44 -60.5t74 -21.5q54 0 79.5 29t40.5 83q12 42 71 43q37 0 53.5 -14
t10.5 -45q-17 -92 -79.5 -153t-175.5 -61q-279 0 -279 361z" />
    <glyph glyph-name="afii10036" unicode="&#x422;" horiz-adv-x="500" 
d="M57 700h386q42 0 42 -60t-42 -60h-127v-542q0 -47 -66 -47q-26 0 -46 11t-20 36v542h-127q-42 0 -42 60t42 60z" />
    <glyph glyph-name="afii10037" unicode="&#x423;" horiz-adv-x="518" 
d="M504 657l-212 -550q-43 -114 -124 -114q-34 0 -52 13t-19 50q-1 45 38 51q15 2 22.5 9t16.5 30l39 99l-197 404q-13 25 2.5 39t44.5 16q40 1 57 -9t30 -38l122 -256l99 256q11 28 26.5 37.5t54.5 9.5q28 -1 44.5 -11.5t7.5 -35.5z" />
    <glyph glyph-name="afii10038" unicode="&#x424;" horiz-adv-x="743" 
d="M437 680v-42q130 -11 203 -93t73 -196q0 -112 -75 -193.5t-201 -91.5v-40q0 -46 -66 -46q-65 0 -65 46v40q-126 10 -201 90t-75 191q0 115 73 198.5t203 94.5v42q0 45 65 45q66 0 66 -45zM437 159q67 7 105.5 60t38.5 130q0 75 -39 128t-105 61v-379zM306 538
q-65 -8 -104.5 -62.5t-39.5 -130.5t39 -127.5t105 -58.5v379z" />
    <glyph glyph-name="afii10039" unicode="&#x425;" horiz-adv-x="542" 
d="M271 479l101 178q15 28 34.5 37.5t60.5 9.5q27 0 43.5 -11.5t2.5 -36.5l-170 -300l178 -314q14 -25 -3 -37.5t-44 -13.5q-74 -2 -99 44l-104 194l-104 -194q-25 -46 -99 -44q-27 1 -44 13.5t-3 37.5l178 314l-169 300q-14 25 2 36.5t43 11.5q41 0 60.5 -9.5t34.5 -37.5z
" />
    <glyph glyph-name="afii10040" unicode="&#x426;" horiz-adv-x="654" 
d="M559 657v-537q39 -1 59.5 -19.5t20.5 -68.5v-136q0 -46 -63 -46q-61 0 -61 46v87q0 17 -16 17h-336q-45 0 -71.5 18.5t-26.5 69.5v575q0 46 66 46q67 0 67 -46v-526q0 -17 16 -17h213v537q0 47 66 47t66 -47z" />
    <glyph glyph-name="afii10041" unicode="&#x427;" horiz-adv-x="575" 
d="M510 657v-619q0 -47 -67 -47q-66 0 -66 47v208q-65 -21 -128 -21q-92 0 -148 48.5t-56 137.5v246q0 47 66 47t66 -47v-231q0 -80 90 -80q59 0 110 24v287q0 47 66 47q67 0 67 -47z" />
    <glyph glyph-name="afii10042" unicode="&#x428;" horiz-adv-x="909" 
d="M214 120h174v537q0 47 66 47t66 -47v-537h174q17 0 17 17v526q0 46 66 46q67 0 67 -46v-575q0 -51 -26.5 -69.5t-71.5 -18.5h-583q-45 0 -71.5 18.5t-26.5 69.5v575q0 46 66 46t66 -46v-526q0 -17 17 -17z" />
    <glyph glyph-name="afii10043" unicode="&#x429;" horiz-adv-x="939" 
d="M844 657v-537q39 -1 59.5 -20t20.5 -68v-136q0 -46 -63 -46q-62 0 -62 46v87q0 17 -17 17h-619q-45 0 -71.5 18.5t-26.5 69.5v575q0 46 66 46q67 0 67 -46v-526q0 -17 16 -17h174v537q0 47 66 47q67 0 67 -47v-537h190v537q0 47 67 47q66 0 66 -47z" />
    <glyph glyph-name="afii10044" unicode="&#x42a;" horiz-adv-x="651" 
d="M268 436h141q92 0 152 -61.5t60 -157.5q0 -95 -60.5 -156t-151.5 -61h-176q-45 0 -71.5 18.5t-26.5 69.5v471q0 16 -17 16h-72q-46 0 -46 62q0 63 46 63h133q53 0 71 -22.5t18 -66.5v-175zM395 316h-127v-179q0 -17 16 -17h111q41 0 64 27t23 70q0 42 -23 70.5t-64 28.5z
" />
    <glyph glyph-name="afii10045" unicode="&#x42b;" horiz-adv-x="807" 
d="M742 657v-619q0 -47 -66 -47t-66 47v619q0 47 66 47t66 -47zM198 436h126q92 0 152 -61.5t60 -157.5q0 -95 -60.5 -156t-151.5 -61h-161q-45 0 -71.5 18.5t-26.5 69.5v575q0 46 67 46q66 0 66 -46v-227zM310 316h-112v-179q0 -17 17 -17h95q41 0 64 27t23 70
q0 42 -23.5 70.5t-63.5 28.5z" />
    <glyph glyph-name="afii10046" unicode="&#x42c;" horiz-adv-x="581" 
d="M197 436h142q92 0 152 -61.5t60 -157.5q0 -95 -60.5 -156t-151.5 -61h-176q-45 0 -71.5 18.5t-26.5 69.5v575q0 46 66 46t66 -46v-227zM325 316h-128v-179q0 -17 17 -17h111q41 0 64 27t23 70q0 42 -23.5 70.5t-63.5 28.5z" />
    <glyph glyph-name="afii10047" unicode="&#x42d;" horiz-adv-x="610" 
d="M575 350q0 -84 -13 -146.5t-44 -112.5t-87.5 -76t-138.5 -26q-122 0 -188.5 58t-77.5 156q-4 31 13 45t54 14q35 -1 53.5 -12.5t24.5 -38.5q22 -107 121 -104q132 2 140 197h-184q-42 0 -42 60t42 60h183q-15 170 -139 170q-57 0 -84 -27t-40 -85q-5 -25 -22.5 -34
t-50.5 -10q-31 -2 -51.5 11.5t-17.5 36.5q11 103 78 164t188 61q81 0 137.5 -25.5t88 -75.5t44.5 -113t13 -147z" />
    <glyph glyph-name="afii10048" unicode="&#x42e;" horiz-adv-x="887" 
d="M287 424q27 287 281 287q284 0 284 -361t-284 -361q-266 0 -283 315h-87v-266q0 -47 -66 -47q-67 0 -67 47v619q0 47 67 47q66 0 66 -47v-233h89zM716 350q0 244 -148 244q-47 0 -78 -21.5t-45.5 -60.5t-19.5 -76.5t-5 -85.5q0 -243 148 -243t148 243z" />
    <glyph glyph-name="afii10049" unicode="&#x42f;" horiz-adv-x="600" 
d="M235 193q-9 -21 -24.5 -61t-28.5 -68.5t-27 -46.5q-21 -28 -73 -26q-35 1 -56.5 18t-1.5 48q11 17 21.5 37.5t16 33l17 40.5t15.5 36q29 68 77 104q-52 20 -86.5 67.5t-34.5 114.5q0 95 59.5 152.5t151.5 57.5h176q45 0 71.5 -18.5t26.5 -69.5v-574q0 -47 -66 -47t-66 47
v244h-60q-70 0 -108 -89zM275 396h128v167q0 17 -17 17h-111q-42 0 -64.5 -24t-22.5 -66q0 -41 23.5 -67.5t63.5 -26.5z" />
    <glyph glyph-name="afii10065" unicode="&#x430;" 
d="M357 41q-61 -52 -150 -52q-71 0 -121.5 45t-50.5 119q0 200 301 182q1 89 -79 89q-20 0 -34.5 -1t-32 -6.5t-24.5 -8.5l-33 -14q-40 -17 -64 11q-15 17 -13 42t23 38q78 47 180 47q93 0 152 -46.5t59 -144.5v-231q0 -19 4 -67q2 -25 -11 -35t-39 -11q-26 0 -41 10t-26 34
zM336 237q-21 4 -50 1t-55 -8.5t-44 -25.5t-17 -51q1 -26 20 -41t50 -15q51 0 77 41t19 99z" />
    <glyph glyph-name="afii10066" unicode="&#x431;" horiz-adv-x="561" 
d="M193 488q16 16 52 25t62 9q219 0 219 -263q0 -124 -56 -196.5t-177 -72.5q-123 0 -183 74t-64 202q-11 316 210 424q16 8 141 62q23 12 45 5.5t33 -30.5q26 -58 -23 -87q-17 -10 -39 -18.5t-51.5 -18l-44.5 -14.5q-98 -37 -124 -101zM391 259q0 155 -106 155
q-104 0 -104 -155q0 -28 5 -54.5t16 -53t33.5 -42t53.5 -15.5q102 1 102 165z" />
    <glyph glyph-name="afii10067" unicode="&#x432;" horiz-adv-x="532" 
d="M65 98v323q0 97 89 97h157q79 0 126 -34t47 -107q0 -26 -15 -55.5t-40 -39.5q68 -29 68 -118q0 -81 -51.5 -122.5t-139.5 -41.5h-152q-89 0 -89 98zM350 370q0 45 -60 45h-73q-18 0 -18 -20v-69h103q20 0 34 11t14 33zM199 223v-100q0 -19 12 -19h93q23 0 41 16t18 44
q0 27 -18 43t-41 16h-105z" />
    <glyph glyph-name="afii10068" unicode="&#x433;" horiz-adv-x="403" 
d="M65 421q0 97 89 97h187q47 0 47 -54t-47 -54h-124q-18 0 -18 -20v-352q0 -48 -67 -48t-67 48v383z" />
    <glyph glyph-name="afii10069" unicode="&#x434;" horiz-adv-x="547" 
d="M5 30q0 46 32 70q32 21 42 75q7 36 10.5 85t5 98t2.5 63q5 97 92 97h194q91 0 91 -98v-316q58 -8 58 -74v-101q0 -49 -57 -49q-59 0 -59 49v51q0 20 -17 20h-254q-18 0 -18 -20v-51q0 -49 -59 -49q-63 0 -63 49v101zM343 108v281q0 21 -18 21h-86q-19 0 -19 -21
q0 -3 -4.5 -80.5t-11.5 -130t-17 -70.5h156z" />
    <glyph glyph-name="afii10070" unicode="&#x435;" horiz-adv-x="518" 
d="M273 428q-43 0 -68.5 -28t-30.5 -76h164q19 0 18 22q-3 39 -25.5 60.5t-57.5 21.5zM468 118q-19 -63 -71.5 -97.5t-125.5 -34.5q-117 1 -176 79t-60 197q0 55 13 102t39.5 85t72.5 60t107 22q101 0 158.5 -58.5t56.5 -155.5q-1 -49 -22 -67.5t-69 -18.5h-221
q2 -59 25 -97.5t79 -37.5q30 0 48 13t32 40q15 29 73 23q30 -3 38.5 -19.5t2.5 -34.5z" />
    <glyph glyph-name="afii10072" unicode="&#x436;" horiz-adv-x="709" 
d="M418 480v-144q8 2 15.5 5t13 5.5t12 8.5t10 8.5t9 10.5t8 10.5t7.5 12.5t6 11.5t6.5 13t6.5 12.5q26 51 38 66q25 27 77 26q33 -1 45.5 -14t-3.5 -42q-11 -18 -46 -85q-42 -78 -78 -94q45 -13 69 -52.5t41.5 -105.5t27.5 -88q22 -49 -43 -55q-72 -7 -90 55l-12.5 44
t-11.5 40t-11 31.5t-14.5 27.5t-19 18.5t-27 12.5t-36.5 3v-184q0 -48 -64 -48q-63 0 -63 48v184q-24 0 -42 -6t-28.5 -13.5t-20.5 -28t-14 -33.5t-13 -46l-14 -50q-18 -62 -90 -55q-65 6 -43 55q10 22 27.5 87.5t41.5 105t69 53.5q-39 17 -78 94q-35 67 -46 85
q-16 29 -3.5 42t45.5 14q52 1 76 -26q14 -15 39 -66q28 -56 45 -73q20 -19 49 -25v144q0 48 63 48q64 0 64 -48z" />
    <glyph glyph-name="afii10073" unicode="&#x437;" horiz-adv-x="452" 
d="M214 322q31 0 48.5 15t17.5 42q0 48 -64 48q-30 0 -47 -11.5t-28 -38.5q-6 -13 -24.5 -19t-38.5 -4q-56 7 -45 49q17 66 68.5 97.5t121.5 31.5q75 0 128.5 -38t53.5 -110q0 -66 -53 -108q65 -38 65 -121q0 -79 -59 -124t-139 -45q-68 0 -121.5 30.5t-69.5 93.5
q-16 64 50 68q49 4 66 -39q20 -49 70 -49q34 0 56 17.5t22 50.5q0 32 -24 47t-58 15q-28 0 -39 12t-11 37q0 34 14 43.5t40 9.5z" />
    <glyph glyph-name="afii10074" unicode="&#x438;" horiz-adv-x="569" 
d="M232 274l151 233q14 21 57 21q64 0 64 -48v-442q0 -48 -67 -48t-67 48v263q-13 -25 -32 -57l-152 -232q-15 -22 -57 -22q-64 0 -64 48v442q0 48 67 48t67 -48v-262q16 32 33 56z" />
    <glyph glyph-name="afii10075" unicode="&#x439;" horiz-adv-x="569" 
d="M286 563q-49 0 -91 23.5t-58 55.5q-12 26 14 47q12 10 28 11.5t27 -8.5q33 -37 80 -37q48 0 81 37q11 10 27 8.5t28 -11.5q26 -23 13 -47q-15 -32 -57 -55.5t-92 -23.5zM440 528q64 0 64 -48v-442q0 -24 -19.5 -36t-47.5 -12q-67 0 -67 48v263q-15 -30 -33 -57l-151 -232
q-15 -22 -57 -22q-64 0 -64 48v442q0 48 67 48t67 -48v-262q14 29 32 56l152 233q14 21 57 21z" />
    <glyph glyph-name="afii10076" unicode="&#x43a;" horiz-adv-x="510" 
d="M199 480v-145q21 4 38 13.5t30 25.5t22 30.5t22 38t22 37.5q36 52 97 48q34 -2 49 -17t-2 -44q-12 -17 -39 -64t-50.5 -76t-50.5 -40q48 -13 73.5 -51.5t44 -104.5t28.5 -87q24 -49 -43 -55q-74 -7 -93 55q-3 9 -9.5 31l-9 30t-9 26t-10 24.5l-10.5 19t-13.5 17.5
l-15.5 12.5t-19.5 10t-23.5 4.5t-28 2v-183q0 -48 -67 -48t-67 48v442q0 48 67 48t67 -48z" />
    <glyph glyph-name="afii10077" unicode="&#x43b;" horiz-adv-x="542" 
d="M477 421v-383q0 -48 -67 -48t-67 48v352q0 20 -18 20h-75q-19 0 -19 -20q-2 -24 -6.5 -103.5t-9.5 -121.5q-12 -86 -43.5 -131t-103.5 -45q-29 0 -42 12.5t-15 41.5q-1 53 36 59q13 2 25.5 14t15.5 33q6 36 9.5 89t6 110.5t3.5 72.5q7 97 94 97h186q90 0 90 -97z" />
    <glyph glyph-name="afii10078" unicode="&#x43c;" horiz-adv-x="630" 
d="M500 528q28 0 46.5 -12.5t18.5 -39.5v-438q0 -48 -66 -48t-66 48v240q-12 -34 -22 -51l-47 -89q-15 -29 -49 -29t-49 29l-47 88q-8 15 -22 52v-240q0 -48 -66 -48t-66 48v438q0 27 18.5 39.5t46.5 12.5q48 0 66 -33l119 -226l119 226q17 33 66 33z" />
    <glyph glyph-name="afii10079" unicode="&#x43d;" horiz-adv-x="560" 
d="M199 219v-181q0 -48 -67 -48t-67 48v442q0 48 67 48t67 -48v-153h162v153q0 48 67 48t67 -48v-442q0 -48 -67 -48t-67 48v181h-162z" />
    <glyph glyph-name="afii10080" unicode="&#x43e;" horiz-adv-x="528" 
d="M35 259q0 269 229 269t229 -269t-229 -269t-229 269zM364 259q0 33 -3.5 58t-12.5 52t-30.5 41.5t-53.5 14.5t-53 -14.5t-30.5 -41.5t-12.5 -52t-3 -58q0 -166 99 -166q100 0 100 166z" />
    <glyph glyph-name="afii10081" unicode="&#x43f;" horiz-adv-x="557" 
d="M65 421q0 44 22.5 70.5t67.5 26.5h248q89 0 89 -97v-383q0 -48 -67 -48t-67 48v352q0 20 -18 20h-123q-17 0 -17 -20v-352q0 -48 -67 -48q-26 0 -47 11t-21 37v383z" />
    <glyph glyph-name="afii10082" unicode="&#x440;" horiz-adv-x="566" 
d="M191 486q19 20 52 32.5t68 12.5q220 0 220 -271q0 -126 -54.5 -199t-165.5 -73q-72 0 -112 39v-165q0 -48 -67 -48t-67 48v617q0 51 61 51q58 0 65 -44zM199 242q0 -57 25 -103.5t74 -46.5q92 0 92 168q0 167 -92 167q-47 0 -73 -43.5t-26 -96.5v-45z" />
    <glyph glyph-name="afii10083" unicode="&#x441;" horiz-adv-x="509" 
d="M35 259q0 269 229 269q85 0 140.5 -40.5t63.5 -108.5q4 -30 -9.5 -43t-48.5 -13q-50 1 -61 36q-10 34 -29.5 50t-55.5 16q-100 0 -100 -166t100 -166q60 0 88 65q14 35 64 37q31 1 46.5 -12t9.5 -39q-16 -71 -69.5 -112.5t-138.5 -41.5q-229 0 -229 269z" />
    <glyph glyph-name="afii10084" unicode="&#x442;" horiz-adv-x="416" 
d="M141 410h-78q-48 0 -48 54t48 54h290q48 0 48 -54t-48 -54h-78v-372q0 -48 -67 -48t-67 48v372z" />
    <glyph glyph-name="afii10085" unicode="&#x443;" horiz-adv-x="480" 
d="M458 454l-183 -520q-45 -129 -192 -105q-41 7 -41 62q0 30 13 44.5t42 11.5q23 -3 42.5 9t27.5 34l15 44l-160 417q-24 66 43 72q68 8 81 -28l99 -275l94 275q12 36 80 28q33 -3 42 -18.5t-3 -50.5z" />
    <glyph glyph-name="afii10086" unicode="&#x444;" horiz-adv-x="682" 
d="M406 521q119 -8 185 -75t66 -188q0 -240 -251 -260v-126q0 -47 -65 -47t-65 47v126q-251 14 -251 260q0 247 251 263v137q0 46 65 46t65 -46v-137zM276 419q-55 -10 -83 -47t-28 -110q0 -74 27.5 -112.5t83.5 -50.5v320zM406 99q55 12 83 50.5t28 112.5q0 73 -28 110
t-83 47v-320z" />
    <glyph glyph-name="afii10087" unicode="&#x445;" horiz-adv-x="461" 
d="M42 458q-14 22 -9 35.5t18 20t34 8.5q17 1 31.5 1t27.5 -7t20 -21l67 -126l66 126q11 20 30 24.5t50 2.5q33 -3 45.5 -17t-3.5 -47l-116 -188l131 -205q19 -28 9 -47t-45 -20q-19 -1 -35 -0.5t-31 8.5t-24 24l-77 143l-78 -143q-9 -16 -23.5 -24t-31 -8.5t-35.5 0.5
q-35 1 -45 20t9 47l132 205z" />
    <glyph glyph-name="afii10088" unicode="&#x446;" horiz-adv-x="571" 
d="M481 480v-372q80 -6 80 -84v-95q0 -48 -57 -48q-58 0 -58 48v51q0 20 -18 20h-274q-89 0 -89 98v382q0 48 67 48t67 -48v-352q0 -20 18 -20h130v372q0 48 67 48t67 -48z" />
    <glyph glyph-name="afii10089" unicode="&#x447;" horiz-adv-x="525" 
d="M460 480v-442q0 -48 -68 -48q-67 0 -67 48v145q-46 -18 -103 -19q-81 -2 -129 40t-48 120v156q0 48 67 48t67 -48v-143q0 -72 72 -72q38 0 74 24v191q0 48 67 48q68 0 68 -48z" />
    <glyph glyph-name="afii10090" unicode="&#x448;" horiz-adv-x="799" 
d="M65 98v382q0 48 67 48t67 -48v-352q0 -20 18 -20h115v372q0 48 67 48t67 -48v-372h116q18 0 18 20v352q0 48 67 48t67 -48v-382q0 -98 -90 -98h-490q-89 0 -89 98z" />
    <glyph glyph-name="afii10091" unicode="&#x449;" horiz-adv-x="824" 
d="M466 108h134v372q0 48 67 48t67 -48v-372q80 -6 80 -84v-95q0 -48 -57 -48q-58 0 -58 48v51q0 20 -18 20h-527q-89 0 -89 98v382q0 48 67 48t67 -48v-352q0 -20 18 -20h115v372q0 48 67 48t67 -48v-372z" />
    <glyph glyph-name="afii10092" unicode="&#x44a;" horiz-adv-x="541" 
d="M114 98v292q0 20 -18 20h-44q-47 0 -47 54t47 54h101q95 0 95 -84v-92h110q51 0 87.5 -17t53.5 -45t24.5 -54.5t7.5 -54.5t-8.5 -55.5t-26.5 -54.5t-54 -44t-84 -17h-155q-89 0 -89 98zM248 238v-115q0 -20 16 -20h73q24 0 42 17.5t18 50.5t-18 50t-42 17h-89z" />
    <glyph glyph-name="afii10093" unicode="&#x44b;" horiz-adv-x="719" 
d="M65 98v382q0 48 67 48t67 -48v-138h99q51 0 87.5 -17t54 -45t24.5 -54.5t7 -54.5t-8.5 -55.5t-26.5 -54.5t-54 -44t-84 -17h-144q-89 0 -89 98zM199 238v-115q0 -20 16 -20h62q24 0 42 17.5t18 50.5t-18 50t-42 17h-78zM654 480v-442q0 -48 -67 -48t-67 48v442
q0 48 67 48t67 -48z" />
    <glyph glyph-name="afii10094" unicode="&#x44c;" horiz-adv-x="495" 
d="M65 98v382q0 48 67 48t67 -48v-138h113q51 0 87.5 -17t53.5 -45t24.5 -54.5t7.5 -54.5t-8.5 -55.5t-26.5 -54.5t-54 -44t-84 -17h-158q-89 0 -89 98zM199 238v-115q0 -20 17 -20h75q24 0 42 17.5t18 50.5t-18 50t-42 17h-92z" />
    <glyph glyph-name="afii10095" unicode="&#x44d;" horiz-adv-x="509" 
d="M227 321h115q-3 46 -27 74.5t-70 28.5q-60 0 -86 -54q-18 -39 -68 -32q-69 8 -42 76q41 113 196 113q229 0 229 -269q0 -268 -229 -268q-82 0 -135.5 33t-71.5 91q-8 25 5.5 43t43.5 21q50 5 68 -27q33 -58 90 -58q48 -1 72 33.5t27 86.5h-117q-48 0 -48 54t48 54z" />
    <glyph glyph-name="afii10096" unicode="&#x44e;" horiz-adv-x="777" 
d="M288 327q31 201 225 201q229 0 229 -269q0 -268 -229 -268q-208 0 -227 228h-87v-181q0 -48 -67 -48t-67 48v442q0 48 67 48t67 -48v-153h89zM613 259q0 166 -100 166t-100 -166q0 -165 100 -165t100 165z" />
    <glyph glyph-name="afii10097" unicode="&#x44f;" horiz-adv-x="528" 
d="M463 421v-383q0 -48 -67 -48t-67 48v155h-37q-25 0 -46 -18.5t-31 -37.5t-23.5 -54t-18.5 -44q-14 -28 -33 -38t-54 -8q-34 3 -52.5 21.5t1.5 42.5q17 21 33.5 57.5t35.5 66t47 47.5q-46 11 -73.5 50t-27.5 79q0 27 8.5 53t26.5 51.5t54 41t84 15.5h151q89 0 89 -97z
M329 297v98q0 20 -17 20h-69q-59 0 -59 -58q0 -60 59 -60h86z" />
    <glyph glyph-name="afii10071" unicode="&#x451;" horiz-adv-x="518" 
d="M182 704q62 0 62 -63q0 -31 -13.5 -47.5t-48.5 -16.5q-63 0 -63 64q0 63 63 63zM350 704q62 0 62 -63q0 -31 -13.5 -47.5t-48.5 -16.5t-48.5 16.5t-13.5 47.5q0 63 62 63zM273 428q-43 0 -68.5 -28t-30.5 -76h164q19 0 18 22q-3 39 -25.5 60.5t-57.5 21.5zM468 118
q-19 -63 -71.5 -97.5t-125.5 -34.5q-117 1 -176 79t-60 197q0 55 13 102t39.5 85t72.5 60t107 22q101 0 158.5 -58.5t56.5 -155.5q-1 -49 -22 -67.5t-69 -18.5h-221q2 -59 25 -97.5t79 -37.5q30 0 48 13t32 40q15 29 73 23q30 -3 38.5 -19.5t2.5 -34.5z" />
    <glyph glyph-name="afii10099" unicode="&#x452;" horiz-adv-x="573" 
d="M209 656v-10h89q28 0 28 -39q0 -41 -28 -41h-89v-89q59 58 141 58q168 0 168 -178v-417q0 -69 -40.5 -102.5t-95.5 -35.5q-96 0 -94 62q2 14 12.5 23.5t25.5 9.5q36 -1 46.5 9.5t10.5 41.5v380q0 86 -58 86q-44 0 -71.5 -25t-36 -56.5t-8.5 -71.5v-224q0 -47 -67 -47
q-68 0 -68 47v529h-46q-28 0 -28 41q0 39 28 39h46v10q0 49 68 49q67 0 67 -49z" />
    <glyph glyph-name="afii10100" unicode="&#x453;" horiz-adv-x="403" 
d="M190 610l33 76q15 30 55 30q27 0 40 -3q25 -4 28 -20t-16 -35l-56 -68q-24 -26 -59 -19q-39 8 -25 39zM65 420q0 98 88 98h187q25 0 36.5 -15.5t11.5 -37.5q0 -55 -48 -55h-124q-17 0 -17 -20v-353q0 -47 -67 -47t-67 47v383z" />
    <glyph glyph-name="afii10101" unicode="&#x454;" horiz-adv-x="509" 
d="M282 321q48 0 48 -54t-48 -54h-117q3 -52 27 -86.5t72 -33.5q57 0 91 58q18 32 67 27q30 -3 43.5 -21t5.5 -43q-18 -58 -71.5 -91t-135.5 -33q-229 0 -229 268q0 270 229 270q154 0 197 -114q25 -68 -43 -76q-50 -7 -68 32q-25 54 -86 54q-46 0 -70 -28.5t-27 -74.5h115z
" />
    <glyph glyph-name="afii10102" unicode="&#x455;" horiz-adv-x="475" 
d="M83 182q53 8 71 -31q29 -57 95 -57q27 0 49.5 14.5t23.5 40.5q0 27 -24.5 39.5t-86.5 25.5q-37 8 -64 18t-54 27.5t-41 46t-14 66.5q0 74 59 117t137 43q150 0 189 -112q9 -26 -1 -39.5t-39 -17.5q-57 -7 -80 25q-27 40 -70 40q-70 0 -70 -45q0 -41 99 -58
q43 -8 73 -18.5t58 -28.5t42.5 -47t14.5 -69q0 -83 -58.5 -129t-141.5 -46q-159 0 -208 121q-26 62 41 74z" />
    <glyph glyph-name="afii10103" unicode="&#x456;" horiz-adv-x="276" 
d="M205 480v-441q0 -48 -67 -48t-67 48v441q0 48 67 48t67 -48zM138 707q40 0 56.5 -17t16.5 -49q0 -33 -15.5 -51.5t-57.5 -18.5q-43 0 -58 18t-15 52q0 33 16 49.5t57 16.5z" />
    <glyph glyph-name="afii10104" unicode="&#x457;" horiz-adv-x="287" 
d="M211 480v-442q0 -48 -67 -48t-67 48v442q0 48 67 48t67 -48zM224 704q58 0 58 -59q0 -61 -58 -61q-33 0 -46 15.5t-13 45.5q0 59 59 59zM64 704q59 0 59 -59q0 -61 -59 -61t-59 61q0 59 59 59z" />
    <glyph glyph-name="afii10105" unicode="&#x458;" horiz-adv-x="280" 
d="M209 480v-496q0 -85 -53.5 -126t-142.5 -32q-48 5 -48 69q0 30 15 43.5t47 13.5q48 0 48 59v469q0 48 67 48t67 -48zM142 707q41 0 57 -16.5t16 -49.5q0 -34 -15 -52t-58 -18q-42 0 -57.5 18.5t-15.5 51.5t16 49.5t57 16.5z" />
    <glyph glyph-name="afii10106" unicode="&#x459;" horiz-adv-x="773" 
d="M478 238v-115q0 -20 16 -20h74q25 0 42.5 17t17.5 50t-17.5 50.5t-42.5 17.5h-90zM478 420v-78h113q51 0 87 -17t53 -45t24.5 -55t7.5 -55q0 -27 -8.5 -54.5t-27 -54.5t-54 -44t-82.5 -17h-159q-89 0 -89 98v292q0 20 -18 20h-76q-18 0 -18 -20q-3 -25 -7.5 -104.5
t-9.5 -120.5q-11 -85 -43.5 -130.5t-103.5 -45.5q-29 0 -42 12.5t-14 41.5q-3 27 7.5 42.5t27.5 17.5q14 2 26.5 13.5t15.5 32.5q8 47 13 155t6 116q7 98 94 98h186q91 0 91 -98z" />
    <glyph glyph-name="afii10107" unicode="&#x45a;" horiz-adv-x="792" 
d="M497 235v-112q0 -20 17 -20h75q23 0 41 17t18 50q0 32 -18 48.5t-41 16.5h-92zM362 98v137h-163v-198q0 -47 -67 -47t-67 47v444q0 47 67 47t67 -47v-142h163v142q0 47 67 47q68 0 68 -47v-142h113q51 0 87 -16.5t53.5 -44t24.5 -53.5t7 -55q0 -27 -8 -54.5t-26.5 -54.5
t-54 -44t-83.5 -17h-158q-90 0 -90 98z" />
    <glyph glyph-name="afii10108" unicode="&#x45b;" horiz-adv-x="583" 
d="M218 656v-10h89q31 0 31 -39q0 -41 -31 -41h-89v-89q62 58 141 58q169 0 169 -178v-320q0 -47 -69 -47q-67 0 -67 47v291q0 86 -58 86q-43 0 -70.5 -25t-36.5 -57t-9 -71v-224q0 -47 -67 -47q-68 0 -68 47v529h-44q-29 0 -29 41q0 39 29 39h44v10q0 49 68 49q67 0 67 -49
z" />
    <glyph glyph-name="afii10109" unicode="&#x45c;" horiz-adv-x="511" 
d="M219 608l34 76q16 32 55 31q28 0 39 -4q26 -4 29.5 -19.5t-14.5 -35.5l-59 -68q-24 -26 -56 -19q-42 7 -28 39zM198 481v-145q27 5 48.5 21t31.5 30t29 47t28 47q34 52 96 47q33 -2 49 -17t-1 -42q-13 -18 -40 -65t-50.5 -76.5t-50.5 -40.5q37 -10 62.5 -39.5t36 -60
t24 -76t24.5 -68.5q22 -47 -44 -54q-77 -5 -94 54q-2 8 -9 32t-9 30l-8.5 25.5t-10 24.5t-11 19t-13.5 18t-15.5 12t-20 10l-23.5 4.5t-29 1.5v-183q0 -47 -66 -47q-67 0 -67 47v444q0 47 67 47q66 0 66 -47z" />
    <glyph glyph-name="afii10110" unicode="&#x45e;" horiz-adv-x="480" 
d="M458 454l-183 -520q-45 -129 -192 -105q-41 7 -41 62q0 30 13 44.5t42 11.5q23 -3 42.5 9t27.5 34l15 44l-160 417q-24 66 43 72q68 8 81 -28l99 -275l94 275q12 36 80 28q33 -3 42 -18.5t-3 -50.5zM253 562q-49 0 -91 23.5t-58 55.5q-12 26 14 47q12 10 28 11.5t27 -8.5
q33 -37 80 -37q48 0 81 37q11 10 27 8.5t28 -11.5q26 -23 13 -47q-15 -32 -57 -55.5t-92 -23.5z" />
    <glyph glyph-name="afii10193" unicode="&#x45f;" horiz-adv-x="559" 
d="M494 98q0 -98 -90 -98h-63v-95q0 -43 -62 -43q-60 0 -60 43v95h-64q-90 0 -90 98v383q0 47 68 47q67 0 67 -47v-353q0 -20 17 -20h125q18 0 18 20v353q0 47 67 47t67 -47v-383z" />
    <glyph glyph-name="afii10050" unicode="&#x490;" horiz-adv-x="479" 
d="M215 580q-17 0 -17 -17v-526q0 -45 -67 -45q-66 0 -66 45v575q0 52 26.5 70t72.5 18h175q15 0 21 7t6 24v128q0 38 51 38q52 0 52 -38v-183q0 -96 -102 -96h-152z" />
    <glyph glyph-name="afii10098" unicode="&#x491;" horiz-adv-x="433" 
d="M65 420q0 98 89 98h150q10 0 14.5 4t4.5 18v135q0 32 48 32q18 0 32.5 -7.5t14.5 -24.5v-171q0 -54 -23 -74t-68 -20h-111q-18 0 -18 -20v-353q0 -47 -66 -47q-67 0 -67 47v383z" />
    <glyph glyph-name="endash" unicode="&#x2013;" horiz-adv-x="568" 
d="M494 271h-420q-39 0 -39 55t39 55h420q39 0 39 -55t-39 -55z" />
    <glyph glyph-name="emdash" unicode="&#x2014;" horiz-adv-x="858" 
d="M787 207h-717q-35 0 -35 51q0 52 35 52h717q36 0 36 -52q0 -51 -36 -51z" />
    <glyph glyph-name="quoteleft" unicode="&#x2018;" horiz-adv-x="245" 
d="M187 705q49 -3 42 -51l-27 -182q-10 -62 -82 -57q-44 3 -58.5 30.5t1.5 59.5l65 162q16 39 59 38z" />
    <glyph glyph-name="quoteright" unicode="&#x2019;" horiz-adv-x="245" 
d="M98 415q-49 3 -42 51l27 182q10 62 82 57q44 -3 58.5 -30.5t-1.5 -59.5l-65 -162q-16 -39 -59 -38z" />
    <glyph glyph-name="quotesinglbase" unicode="&#x201a;" horiz-adv-x="275" 
d="M99 -149q-50 3 -43 51l28 182q9 62 82 57q44 -3 58 -30.5t-2 -59.5l-65 -162q-17 -41 -58 -38z" />
    <glyph glyph-name="quotedblleft" unicode="&#x201c;" horiz-adv-x="389" 
d="M147 749q49 -3 42 -51l-27 -182q-10 -61 -82 -56q-44 2 -58.5 29.5t1.5 60.5l65 161q17 41 59 38zM331 749q49 -3 42 -51l-27 -182q-10 -61 -82 -56q-44 2 -58.5 29.5t1.5 60.5l65 161q17 41 59 38z" />
    <glyph glyph-name="quotedblright" unicode="&#x201d;" horiz-adv-x="389" 
d="M263 415q-50 3 -43 51l28 182q9 62 82 57q44 -3 58 -30.5t-2 -59.5l-65 -162q-16 -39 -58 -38zM79 415q-50 3 -43 51l28 182q9 62 82 57q44 -3 58 -30.5t-2 -59.5l-65 -162q-15 -39 -58 -38z" />
    <glyph glyph-name="quotedblbase" unicode="&#x201e;" horiz-adv-x="459" 
d="M283 -149q-50 3 -43 51l28 182q9 62 82 57q44 -3 58 -30.5t-2 -59.5l-65 -162q-16 -39 -58 -38zM99 -149q-50 3 -43 51l28 182q9 62 82 57q44 -3 58 -30.5t-2 -59.5l-65 -162q-15 -39 -58 -38z" />
    <glyph glyph-name="dagger" unicode="&#x2020;" horiz-adv-x="511" 
d="M446 420h-138v-554q0 -38 -52 -38q-53 0 -53 38v554h-139q-34 0 -34 50q0 48 34 48h139v149q0 38 53 38q52 0 52 -38v-149h138q35 0 35 -48q0 -50 -35 -50z" />
    <glyph glyph-name="daggerdbl" unicode="&#x2021;" horiz-adv-x="511" 
d="M447 420h-137v-320h137q34 0 34 -51q0 -49 -34 -49h-137v-134q0 -38 -53 -38q-52 0 -52 38v134h-139q-36 0 -36 49q0 51 36 51h139v320h-139q-36 0 -36 50q0 48 36 48h139v149q0 38 52 38q53 0 53 -38v-149h137q34 0 34 -48q0 -50 -34 -50z" />
    <glyph glyph-name="bullet" unicode="&#x2022;" horiz-adv-x="444" 
d="M222 512q65 0 111 -46t46 -111t-46 -111t-111 -46t-111 46t-46 111t46 111t111 46z" />
    <glyph glyph-name="ellipsis" unicode="&#x2026;" horiz-adv-x="880" 
d="M738 146q44 0 60.5 -19t16.5 -57t-16.5 -58t-60.5 -20q-45 0 -60 19t-15 59q0 38 16 57t59 19zM441 146q43 0 59 -19t16 -57t-16 -58t-59 -20q-45 0 -61 19t-16 59q0 38 17 57t60 19zM142 146q44 0 59 -18.5t15 -57.5t-15.5 -58.5t-58.5 -19.5q-45 0 -61 19t-16 59
q0 38 17 57t60 19z" />
    <glyph glyph-name="perthousand" unicode="&#x2030;" horiz-adv-x="956" 
d="M656 151q0 69 33.5 112t103.5 43q71 0 104.5 -43t33.5 -112q0 -70 -33.5 -113t-104.5 -43q-70 0 -103.5 43t-33.5 113zM834 151q0 71 -41 71q-40 0 -40 -71q0 -72 40 -72q41 0 41 72zM25 550q0 70 34 113.5t105 43.5q70 0 103.5 -43.5t33.5 -113.5q0 -69 -34 -112.5
t-103 -43.5q-71 0 -105 43.5t-34 112.5zM205 550q0 71 -41 71q-44 0 -44 -71q0 -70 44 -70q41 0 41 70zM354 151q0 69 34 112t104 43t104 -43.5t34 -111.5q0 -70 -34 -113t-104 -43t-104 43t-34 113zM533 151q0 71 -41 71t-41 -71q0 -72 41 -72t41 72zM555 650l-351 -621
q-21 -43 -79 -32q-45 8 -25 52l351 621q20 38 66 35q27 0 38 -15.5t0 -39.5z" />
    <glyph glyph-name="guilsinglleft" unicode="&#x2039;" horiz-adv-x="284" 
d="M32 283l123 169q21 29 58 26q25 -4 35.5 -18t-1.5 -37l-95 -160q-7 -12 0 -22l95 -160q12 -23 1.5 -37.5t-35.5 -16.5q-37 -4 -58 27l-123 168q-25 30 0 61z" />
    <glyph glyph-name="guilsinglright" unicode="&#x203a;" horiz-adv-x="285" 
d="M254 283q23 -31 0 -61l-123 -168q-22 -32 -59 -27q-25 2 -35.5 16.5t0.5 37.5l95 160q6 13 0 22l-95 160q-11 23 -0.5 37t35.5 18q38 3 59 -26z" />
    <glyph glyph-name="Euro" unicode="&#x20ac;" horiz-adv-x="691" 
d="M131 361h-54q-37 0 -25 51q10 50 47 50h40q39 239 270 239q123 0 187 -59.5t69 -165.5q1 -23 -18.5 -34.5t-47.5 -11.5q-33 -1 -50.5 6.5t-20.5 32.5q-9 57 -36.5 86t-82.5 29q-102 0 -131 -122h148q35 0 25 -50q-12 -51 -47 -51h-137v-31h115q35 0 25 -51
q-12 -50 -47 -50h-83q26 -132 132 -132q93 0 116 104q7 27 24.5 39t50.5 11q37 -1 53 -14.5t12 -43.5q-13 -90 -78 -152t-178 -62q-126 0 -190 64.5t-81 185.5h-105q-35 0 -25 50q12 51 47 51h76v31z" />
    <glyph glyph-name="afii61352" unicode="&#x2116;" horiz-adv-x="906" 
d="M441 655q0 46 61 46q60 0 60 -46v-620q0 -46 -61 -46q-52 0 -71 32l-197 334l-14.5 21.5t-18.5 28.5t-14 29v-399q0 -46 -61 -46q-60 0 -60 46v620q0 46 61 46q52 0 71 -32l197 -334q3 -6 20.5 -32.5t26.5 -46.5v399zM839 268h-208q-33 0 -33 46q0 47 33 47h208
q32 0 32 -47q0 -46 -32 -46zM605 555q0 64 31.5 103t98.5 39q66 0 98 -39.5t32 -102.5t-32 -102.5t-98 -39.5q-67 0 -98.5 39t-31.5 103zM779 555q0 13 -1 21t-4.5 20t-13.5 18t-25 6q-20 0 -30.5 -12.5t-12 -23.5t-1.5 -29q0 -13 1 -21t4.5 -20t13.5 -18t25 -6q44 0 44 65z
" />
    <glyph glyph-name="trademark" unicode="&#x2122;" horiz-adv-x="839" 
d="M515 352l-58 145v-142q0 -19 -12.5 -29.5t-32.5 -10.5q-19 0 -32.5 11t-13.5 29v304q0 22 13.5 34t35.5 12q45 0 58 -34l97 -241l97 241q13 34 59 34q48 0 48 -46v-304q0 -18 -13 -29t-31 -11q-21 0 -34 10.5t-13 29.5v144l-59 -147q-12 -34 -54 -37q-39 0 -55 37z
M61 700h238q43 0 43 -41q0 -17 -11.5 -29t-31.5 -12h-77v-261q0 -40 -47 -40q-20 0 -34 11t-14 29v261h-66q-18 0 -29.5 12t-11.5 29q0 19 10.5 30t30.5 11z" />
    <glyph glyph-name="_0127" horiz-adv-x="563" 
d="M281 436q-39 0 -67 -27.5t-28 -66.5q0 -40 28 -69t67 -29q40 0 68.5 29t28.5 69q0 39 -28.5 66.5t-68.5 27.5zM281 534q53 0 94 -25l55 55q30 30 68 -8q36 -36 6 -67l-55 -55q24 -43 24 -92q0 -50 -24 -96l55 -53q30 -31 -6 -67q-40 -36 -68 -8l-55 55q-48 -24 -94 -24
q-45 0 -93 24l-55 -53q-29 -31 -66 6t-9 67l56 55q-24 40 -24 94q0 52 24 92l-56 57q-30 30 9 65q35 37 68 8l53 -55q44 25 93 25z" />
    </font>
</defs>
</svg>
